<?xml version="1.0" encoding="UTF-8" standalone="no"?>
<!-- Created with Inkscape (http://www.inkscape.org/) -->

<svg
   width="158.30232"
   height="30"
   viewBox="0 0 41.884156 7.9375002"
   version="1.1"
   id="svg1"
   xml:space="preserve"
   inkscape:version="1.3 (1:1.3+202307231459+0e150ed6c4)"
   sodipodi:docname="logo-light.svg"
   xmlns:inkscape="http://www.inkscape.org/namespaces/inkscape"
   xmlns:sodipodi="http://sodipodi.sourceforge.net/DTD/sodipodi-0.dtd"
   xmlns="http://www.w3.org/2000/svg"
   xmlns:svg="http://www.w3.org/2000/svg"><sodipodi:namedview
     id="namedview1"
     pagecolor="#505050"
     bordercolor="#eeeeee"
     borderopacity="1"
     inkscape:showpageshadow="0"
     inkscape:pageopacity="0"
     inkscape:pagecheckerboard="0"
     inkscape:deskcolor="#d1d1d1"
     inkscape:document-units="mm"
     inkscape:zoom="2.642478"
     inkscape:cx="79.092428"
     inkscape:cy="33.112859"
     inkscape:window-width="1920"
     inkscape:window-height="1015"
     inkscape:window-x="0"
     inkscape:window-y="0"
     inkscape:window-maximized="1"
     inkscape:current-layer="layer1" /><defs
     id="defs1"><filter
       style="color-interpolation-filters:sRGB"
       inkscape:label="Greyscale"
       id="filter1"
       x="0"
       y="0"
       width="1"
       height="1"><feColorMatrix
         values="0.21 0.72 0.072 0 0 0.21 0.72 0.072 0 0 0.21 0.72 0.072 0 0 0 0 0 1 0 "
         id="feColorMatrix1"
         result="fbSourceGraphic" /><feColorMatrix
         result="fbSourceGraphicAlpha"
         in="fbSourceGraphic"
         values="0 0 0 -1 0 0 0 0 -1 0 0 0 0 -1 0 0 0 0 1 0"
         id="feColorMatrix2" /><feColorMatrix
         id="feColorMatrix3"
         values="0.21 0.72 0.072 0 0 0.21 0.72 0.072 0 0 0.21 0.72 0.072 0 0 0 0 0 1 0 "
         in="fbSourceGraphic" /></filter><style
       id="style1">.cls-1{fill:#fff;}.cls-2{fill:#f68d2e;}</style><filter
       style="color-interpolation-filters:sRGB"
       inkscape:label="Greyscale"
       id="filter32"
       x="0"
       y="0"
       width="1"
       height="1"><feColorMatrix
         values="-0.826841 0.72 0.072 5 0 -0.826841 0.72 0.072 5 0 -0.826841 0.72 0.072 5 0 0 0 0 1 0 "
         id="feColorMatrix32" /></filter><filter
       style="color-interpolation-filters:sRGB"
       inkscape:label="Greyscale"
       id="filter33"
       x="0"
       y="0"
       width="1"
       height="1"><feColorMatrix
         values="-0.826841 0.72 0.072 5 0 -0.826841 0.72 0.072 5 0 -0.826841 0.72 0.072 5 0 0 0 0 1 0 "
         id="feColorMatrix33" /></filter><style
       id="style1-2">.cls-2{fill:#fff;}</style></defs><g
     inkscape:label="Layer 1"
     inkscape:groupmode="layer"
     id="layer1"
     transform="translate(-62.384348,-57.212417)"><g
       class="cls-1"
       id="g1"
       transform="matrix(0.19700921,0,0,0.19700921,62.384348,57.212417)"><path
         class="cls-2"
         d="M 0.17,1.5 V 39.58 H 38.25 V 1.5 Z M 26.53,27.86 H 11.89 V 13.22 h 14.64 z"
         transform="translate(-0.17,-0.36)"
         id="path1" /><rect
         class="cls-2"
         x="49.799999"
         y="12.86"
         width="14.65"
         height="14.65"
         id="rect1" /></g><path
       class="cls-2"
       d="m 77.388569,57.437007 h 4.180535 c 1.534701,0 2.236054,1.022478 2.236054,1.958272 0,0.673771 -0.260052,1.107192 -0.953524,1.51303 0.87472,0.323095 1.351483,0.908213 1.351483,1.808544 0,1.077642 -0.788037,2.222264 -2.628103,2.222264 h -4.188415 z m 2.283337,5.811771 h 1.51303 a 0.72499387,0.72499387 0 0 0 0.788037,-0.724993 0.65013037,0.65013037 0 0 0 -0.709233,-0.626489 h -1.591834 z m 0,-2.854663 h 1.215546 c 0.555566,0 0.776216,-0.258081 0.776216,-0.638309 a 0.55950614,0.55950614 0 0 0 -0.616639,-0.577237 h -1.359363 z"
       id="path2-7"
       style="stroke-width:0.197009" /><path
       class="cls-2"
       d="m 86.582989,57.437007 h 2.417302 l 2.758129,7.48635 h -2.488226 l -0.364467,-1.120983 h -2.322738 l -0.307335,1.115073 H 83.82486 Z m 1.109162,2.224234 -0.636341,2.502017 h 1.363304 z"
       id="path3-0"
       style="stroke-width:0.197009" /><path
       class="cls-2"
       d="m 95.60601,59.665181 h 2.305006 c 0,-1.27268 -0.957459,-2.452764 -3.22898,-2.452764 -2.492166,0 -3.262472,1.379064 -3.262472,2.381841 0,1.621386 1.985853,2.052836 2.046926,2.072537 0.295514,0.09456 1.528792,0.423569 1.836126,0.533895 0.267932,0.09456 0.522072,0.309305 0.522072,0.591027 0,0.437361 -0.522072,0.64816 -0.955493,0.64816 -0.279752,0 -1.217516,-0.09259 -1.217516,-1.08552 h -2.379871 c 0,1.317991 0.908212,2.79556 3.453571,2.79556 2.81132,0 3.398406,-1.676548 3.398406,-2.561119 a 2.0685967,2.0685967 0 0 0 -1.363304,-1.91887 c -0.571325,-0.230501 -1.520908,-0.43342 -1.9957,-0.571327 -0.240351,-0.07092 -1.040209,-0.23247 -1.040209,-0.721053 0,-0.624519 1.030358,-0.543746 0.880631,-0.543746 0.464942,-0.0039 1.000807,0.258083 1.000807,0.831379 z"
       id="path4"
       style="stroke-width:0.197009" /><polygon
       class="cls-2"
       points="195.07,17.88 210.7,17.88 210.7,27.48 195.01,27.48 195.01,39.21 183.34,39.21 183.4,1.13 212.6,1.13 212.6,11.18 195.07,11.18 "
       id="polygon4"
       transform="matrix(0.19700921,0,0,0.19700921,62.384348,57.212417)" /></g></svg>
