<?xml version="1.0" encoding="UTF-8" standalone="no"?>
<!-- Created with Inkscape (http://www.inkscape.org/) -->

<svg
   width="205.54066"
   height="30"
   viewBox="0 0 54.382634 7.9375005"
   version="1.1"
   id="svg1"
   xml:space="preserve"
   inkscape:version="1.3 (1:1.3+202307231459+0e150ed6c4)"
   sodipodi:docname="logo-light.svg"
   xmlns:inkscape="http://www.inkscape.org/namespaces/inkscape"
   xmlns:sodipodi="http://sodipodi.sourceforge.net/DTD/sodipodi-0.dtd"
   xmlns="http://www.w3.org/2000/svg"
   xmlns:svg="http://www.w3.org/2000/svg"><sodipodi:namedview
     id="namedview1"
     pagecolor="#505050"
     bordercolor="#eeeeee"
     borderopacity="1"
     inkscape:showpageshadow="0"
     inkscape:pageopacity="0"
     inkscape:pagecheckerboard="0"
     inkscape:deskcolor="#d1d1d1"
     inkscape:document-units="mm"
     inkscape:zoom="2.642478"
     inkscape:cx="91.202274"
     inkscape:cy="68.307097"
     inkscape:window-width="1920"
     inkscape:window-height="1015"
     inkscape:window-x="0"
     inkscape:window-y="0"
     inkscape:window-maximized="1"
     inkscape:current-layer="layer1" /><defs
     id="defs1"><filter
       style="color-interpolation-filters:sRGB"
       inkscape:label="Greyscale"
       id="filter1"
       x="0"
       y="0"
       width="1"
       height="1"><feColorMatrix
         values="0.21 0.72 0.072 0 0 0.21 0.72 0.072 0 0 0.21 0.72 0.072 0 0 0 0 0 1 0 "
         id="feColorMatrix1"
         result="fbSourceGraphic" /><feColorMatrix
         result="fbSourceGraphicAlpha"
         in="fbSourceGraphic"
         values="0 0 0 -1 0 0 0 0 -1 0 0 0 0 -1 0 0 0 0 1 0"
         id="feColorMatrix2" /><feColorMatrix
         id="feColorMatrix3"
         values="0.21 0.72 0.072 0 0 0.21 0.72 0.072 0 0 0.21 0.72 0.072 0 0 0 0 0 1 0 "
         in="fbSourceGraphic" /></filter><style
       id="style1">.cls-1{fill:#fff;}.cls-2{fill:#f68d2e;}</style><filter
       style="color-interpolation-filters:sRGB"
       inkscape:label="Greyscale"
       id="filter32"
       x="0"
       y="0"
       width="1"
       height="1"><feColorMatrix
         values="-0.826841 0.72 0.072 5 0 -0.826841 0.72 0.072 5 0 -0.826841 0.72 0.072 5 0 0 0 0 1 0 "
         id="feColorMatrix32" /></filter><filter
       style="color-interpolation-filters:sRGB"
       inkscape:label="Greyscale"
       id="filter33"
       x="0"
       y="0"
       width="1"
       height="1"><feColorMatrix
         values="-0.826841 0.72 0.072 5 0 -0.826841 0.72 0.072 5 0 -0.826841 0.72 0.072 5 0 0 0 0 1 0 "
         id="feColorMatrix33" /></filter></defs><g
     inkscape:label="Layer 1"
     inkscape:groupmode="layer"
     id="layer1"
     transform="translate(-59.195824,-47.937046)"><path
       class="cls-1"
       d="m 73.161172,49.52109 h 2.795422 v 7.66824 h 3.156759 v -7.66824 h 2.78148 v -2.75011 h -8.733661 z m 14.546419,1.640539 H 85.785884 V 49.52109 h 1.921707 c 0.530967,0 1.030565,0.249799 1.030565,0.813299 0,0.563499 -0.499598,0.82724 -1.030565,0.82724 m 4.233798,-0.813298 c 0,-1.953078 -1.311733,-3.578512 -3.749304,-3.578512 h -5.56296 v 10.422996 h 3.156759 v -3.281076 h 1.139779 l 1.438376,3.282239 h 3.593616 l -1.890337,-3.684241 c 0.82724,-0.40665 1.874071,-1.35937 1.874071,-3.156759 m 0.889981,6.844485 h 3.155596 V 46.77098 H 92.83137 Z M 56.321252,51.766955 54.493655,46.77098 h -4.361602 v 10.422998 h 3.156759 v -6.265882 l 2.323709,6.265882 h 1.405844 l 2.323709,-6.265882 v 6.265882 h 3.156759 V 46.77098 h -4.349984 z m 48.072898,0.06274 3.25319,-5.063362 h -3.73885 l -1.65564,2.968538 -1.68818,-2.963891 h -3.702827 l 3.253197,5.078467 -3.485567,5.344531 h 3.717937 l 1.9066,-3.188129 1.9066,3.188129 h 3.71794 z m -36.527549,1.394225 1.031726,-3.35892 1.030566,3.35892 z m -0.953883,-6.45294 -3.844577,10.422998 h 3.578513 l 0.375279,-1.218785 h 3.750466 l 0.375279,1.218785 h 3.57735 L 70.881614,46.77098 Z"
       id="path2"
       style="stroke-width:0.116185;filter:url(#filter32)"
       transform="matrix(0.75000002,0,0,0.75000002,21.596783,12.976448)" /><path
       class="cls-2"
       d="m 119.29377,54.615823 c 2.37483,-1.906604 3.26597,-3.062649 3.26597,-4.516129 0,-2.109929 -1.62659,-3.485564 -4.04674,-3.485564 -1.56269,0 -2.99991,0.593708 -4.00026,1.749753 l 1.6905,1.892661 c 0.64134,-0.655285 1.37563,-1.030565 2.26677,-1.030565 0.65529,0 1.10841,0.390383 1.10841,0.906247 0,0.85861 -0.48333,1.296629 -4.68692,4.688083 v 2.37483 h 7.75073 v -2.579316 z m -9.02761,-1.843863 h -2.10877 l 2.10877,-3.28224 z m 2.81633,-6.00098 h -4.37438 l -3.24041,5.061039 2.38064,3.69005 h 2.41782 v 1.671909 h 2.81633 v -1.671909 h 1.20369 V 52.77196 h -1.20369 z"
       id="path3"
       style="stroke-width:0.116185;filter:url(#filter33)"
       transform="matrix(0.75000002,0,0,0.75000002,21.596783,12.976448)" /></g></svg>
