<?xml version="1.0" encoding="UTF-8" standalone="no"?>
<!-- Created with Inkscape (http://www.inkscape.org/) -->

<svg
   width="13.093459mm"
   height="13.038046mm"
   viewBox="0 0 13.093459 13.038046"
   version="1.1"
   id="svg1"
   xml:space="preserve"
   inkscape:version="1.3.2 (1:1.3.2+202311252150+091e20ef0f)"
   sodipodi:docname="logomark-dark.svg"
   xmlns:inkscape="http://www.inkscape.org/namespaces/inkscape"
   xmlns:sodipodi="http://sodipodi.sourceforge.net/DTD/sodipodi-0.dtd"
   xmlns="http://www.w3.org/2000/svg"
   xmlns:svg="http://www.w3.org/2000/svg"><sodipodi:namedview
     id="namedview1"
     pagecolor="#505050"
     bordercolor="#eeeeee"
     borderopacity="1"
     inkscape:showpageshadow="0"
     inkscape:pageopacity="0"
     inkscape:pagecheckerboard="0"
     inkscape:deskcolor="#d1d1d1"
     inkscape:document-units="mm"
     inkscape:zoom="10.047644"
     inkscape:cx="24.781928"
     inkscape:cy="23.637381"
     inkscape:window-width="1920"
     inkscape:window-height="1015"
     inkscape:window-x="0"
     inkscape:window-y="0"
     inkscape:window-maximized="1"
     inkscape:current-layer="g3" /><defs
     id="defs1" /><g
     inkscape:label="Layer 1"
     inkscape:groupmode="layer"
     id="layer1"
     transform="translate(-60.329713,-115.06421)"><g
       fill="#d2ab66"
       fill-rule="nonzero"
       id="g3"
       transform="matrix(0.07916239,0,0,0.07916239,60.329713,115.06421)"
       style="fill:#000000;fill-opacity:1">
       <path
   d="m 61.8,106 c -0.1,0.4 -0.1,0.9 0.1,1.2 0.3,0.5 0.7,0.5 1.2,0.6 0.6,0.2 0.9,0.8 1,1.4 0.1,1.5 -1.4,2.4 -2.5,2.9 -0.3,0.2 -0.1,0.6 0.2,0.6 1.4,-0.2 2.8,-0.3 4,-1.1 1,-0.7 1.7,-1.8 1.8,-3.1 0,-0.3 -0.2,-0.8 0.1,-1 0.2,-0.2 0.6,-0.2 0.8,-0.4 0.4,-0.3 0.8,-0.8 1,-1.3 0.4,-1.1 0.1,-2.3 -0.8,-3 -0.2,-0.2 -0.4,-0.3 -0.7,-0.4 -0.6,-0.4 -0.1,-0.9 0.3,-1.2 0.8,-0.5 1.6,-0.8 2.5,-1.1 1.5,-0.6 3.1,-1.2 4.6,-1.8 3,-1.1 6.1,-2.1 9.2,-2.8 3.1,-0.7 6.2,-1.2 9.4,-1.4 C 92.6,91.3 90.4,89 87.4,87.7 87,87.5 86.5,87.3 86.1,87.2 l -1.2,1.2 c -2.7,2.4 -5.9,4.3 -9.2,5.7 -1.7,0.7 -3.4,1.3 -5.2,1.8 -1.2,0.3 -2.5,0.7 -3.8,0.9 -0.6,0.1 -1.2,0 -1.9,0 -0.6,0.1 -1.2,0.2 -1.8,0.4 -1.1,0.3 -2.1,0.8 -3,1.4 h -0.1 c -1.9,0.6 -4,0.4 -6,0.3 -2,-0.1 -3.7,-0.6 -5.3,-1.7 -0.6,-0.4 -1.2,-0.8 -1.9,-0.9 -0.4,-0.1 -1,0.2 -1.4,-0.1 -0.3,-0.2 -0.4,-0.6 -0.7,-0.9 -1,-0.9 -2.5,-1.1 -3.7,-0.6 -1.6,0.7 -2.4,2.4 -2.3,4 0,0.4 0.5,0.4 0.6,0.1 0.3,-0.9 1.3,-1.2 2.2,-1 0.2,0.1 1.1,0.2 1.2,0.5 0.1,0.2 -0.1,0.6 -0.1,0.8 0,0.8 0.3,1.5 0.8,2.1 -0.6,0 -1.1,0 -1.6,0.1 -1.9,0.2 -3.8,0.8 -5.3,2.1 -1.4,1.2 -2.2,3 -2.1,4.9 0,0.3 0.5,0.4 0.6,0.1 0.6,-1.7 2.3,-2.9 4.1,-2.9 0.3,0 0.4,0 0.6,0.2 0.1,0.1 0.2,0.4 0.3,0.5 0.2,0.3 0.4,0.5 0.7,0.7 0.5,0.4 1,0.6 1.6,0.7 l -0.2,0.2 c -1.7,2.3 -1.4,5.3 -1,7.9 0.1,0.4 0.6,0.4 0.6,0 0,-1.2 0.4,-2.4 1.2,-3.3 0.4,-0.4 0.8,-0.7 1.2,-0.9 0.4,-0.2 0.8,-0.3 1.3,-0.2 0.3,0.1 0.6,0.3 0.8,0.4 0.8,0.3 1.8,0.3 2.6,-0.1 0.4,-0.2 0.8,-0.4 1.1,-0.8 0.4,-0.4 0.6,-1 1.1,-1.4 0.5,-0.4 1.1,-0.5 1.6,-0.8 0.6,-0.2 1.1,-0.5 1.6,-0.8 1.1,-0.6 2.1,-1.5 3,-2.4 0.9,-0.9 2.4,-2.1 3.7,-1.3 1.1,0.6 1.1,1.2 1,1.9 z M 39.9,69.6 c 2.4,-0.4 4.8,-1 7.1,-1.6 1.2,-0.3 2.4,-0.7 3.6,-1.1 -0.1,0.1 -0.2,0.1 -0.2,0.2 -1.8,1.6 -4.1,2.6 -6.3,3.4 -2.1,0.8 -4.3,1.3 -6.5,1.8 -0.2,0.1 -0.3,0.4 -0.1,0.5 1.8,1.7 4.6,2.4 7,2.4 2.6,0 5.1,-0.8 7.5,-1.9 1.4,-0.7 2.8,-1.5 4.1,-2.5 -1.6,2 -3.5,3.7 -5.7,5 -1.8,1.1 -3.6,2 -5.6,2.6 -0.3,0.1 -0.3,0.6 0,0.6 1.7,0.3 3.5,0.2 5.2,0 3.5,-0.5 6.8,-1.9 9.5,-4.1 -0.9,2.6 -3.2,4.7 -5.5,6 -0.3,0.1 -0.2,0.6 0.2,0.6 1.6,-0.1 3.2,-0.4 4.7,-0.9 2.4,-0.7 4.9,-1.7 6.7,-3.5 V 77 C 65.5,76.8 65.2,76.5 65,76.3 64.7,75.9 64.4,75.4 64.2,74.9 63.8,74.1 63.6,73.2 63.4,72.2 L 62.3,75.7 61.4,72 c -0.3,-0.6 -0.9,-2 -0.9,-3.8 -0.1,-0.7 -0.3,-1.5 -0.2,-2.5 l -1.9,2.6 -0.6,-5.1 c -0.1,-0.8 -0.1,-1.8 0,-3.1 -3,-1.5 -5.6,-3.8 -7.5,-6.5 -0.6,-0.9 -1.1,-1.8 -1.2,-2.9 -0.1,-0.6 0,-1.3 0.5,-1.7 0.6,-0.3 1.2,-0.2 1.8,0 1.9,0.7 3.6,2 5.5,2.7 0.8,0.3 1.9,0.7 2.8,0.4 0.6,-0.2 1.2,-0.8 1.5,-1.4 0.6,-1.3 0.3,-2.8 -0.3,-4 -0.9,-1.8 -2.2,-3.4 -3.5,-4.9 -1.4,-1.6 -2.8,-3.1 -4.3,-4.6 -1.5,-1.5 -3,-2.8 -4.7,-4.1 -1.6,-1.2 -3.4,-2.2 -5.2,-3.2 -3.3,-1.8 -6.4,-4 -9.4,-6.3 -2.5,-2 -4.9,-4.1 -6.9,-6.6 -0.6,-0.7 -1.2,-2.3 -2.4,-1.8 -0.8,0.4 -0.9,1.7 -0.9,2.4 -0.1,3.3 2.2,6.4 4.2,8.8 2.6,3.1 5.7,5.8 9,8 1.6,1.1 3.4,2.2 5.1,3.1 1.1,0.6 2.4,1 3.4,1.8 1,0.7 1.8,1.7 1.4,2.9 -0.2,0.8 -0.9,1.2 -1.7,1 -1.1,-0.2 -2.2,-1 -3.1,-1.7 -1.1,-0.7 -2.2,-1.4 -3.2,-2.2 -2.8,-2.1 -5.6,-4.3 -8,-6.8 -1.3,-1.3 -2.5,-2.7 -3.5,-4.2 -0.4,-0.5 -0.7,-1.4 -1.4,-1.6 -0.7,-0.1 -1.1,0.4 -1.2,1 -0.6,1.8 -0.4,4.2 0.3,5.9 0.6,1.6 1.8,3 3,4.2 1.3,1.2 2.8,2.3 4.2,3.4 1.8,1.3 3.7,2.6 5.7,3.6 l 3,1.5 c 0.9,0.4 2.3,0.7 2.7,1.7 0.4,0.8 -0.6,1.3 -1.3,1.5 -0.5,0.1 -1,0 -1.5,-0.1 C 35.5,48.6 30.2,46.3 26.8,42.2 25.7,41 24.9,39.5 24.2,38 c -0.1,-0.3 -0.5,-0.2 -0.6,0.1 -1.2,3.7 -0.2,8.1 2.5,10.9 1.3,1.4 3,2.4 4.7,3.2 2.3,1 4.6,1.8 7.1,2.2 1.2,0.2 2.4,0.4 3.7,0.4 1,0 2.1,-0.1 2.9,0.7 1,0.9 -0.3,1.7 -1.2,1.8 -0.9,0.2 -1.9,0 -2.8,0 -2.9,-0.2 -5.7,-0.8 -8.4,-1.6 -2.5,-0.8 -5,-2 -6.8,-3.9 -0.2,-0.2 -0.5,-0.1 -0.5,0.1 -0.6,3.1 1,6.1 3.5,7.9 2.4,1.7 5.5,2.2 8.4,2.1 1.9,0 3.9,-0.2 5.7,-0.6 1.1,-0.2 3,-1.2 4,-0.3 1.1,0.9 -1.4,1.9 -1.9,2 -1.1,0.3 -2.2,0.6 -3.3,0.8 -4,0.9 -8.3,1.4 -12.2,-0.3 -0.2,-0.1 -0.4,0.1 -0.4,0.3 0.3,2.6 2.5,4.6 4.9,5.3 1.8,1.1 4.2,0.9 6.4,0.5 z"
   id="path1"
   style="fill:#000000;fill-opacity:1" />
         <path
   d="M 142.6,25.2 C 142.5,24.8 142.3,24 142,23.7 l -0.1,-0.1 h -0.2 c 0,0 -0.1,0 -0.1,0.1 -0.9,1.1 -1.6,2.2 -2.4,3.2 -0.6,0.7 -1.3,1.4 -2,2.1 -0.3,0.2 -0.5,0.5 -0.8,0.7 -0.6,0.5 -1.2,1 -1.9,1.5 -0.8,0.6 -1.6,1.2 -2.4,1.9 -0.3,0.2 -0.6,0.4 -0.9,0.7 -0.4,0.3 -0.8,0.5 -1.1,0.8 -1.6,1.1 -3.3,2.2 -4.9,3.3 -0.4,0.3 -0.9,0.6 -1.4,0.9 l -2.4,1.5 -3.6,2.1 c -1,0.6 -2,1.1 -3.1,1.6 -0.6,0.3 -1.3,0.6 -1.9,0.9 -0.3,0.1 -0.6,0.3 -0.9,0.4 -0.2,0.1 -0.5,0.2 -0.7,0.3 -0.1,0.1 -0.2,0.1 -0.3,0.1 -0.1,0 -0.1,0.1 -0.2,0.1 h -0.1 l -0.1,-0.1 c 0,-0.1 0,-0.1 -0.1,-0.2 -0.2,-0.4 -0.2,-0.3 0.1,-0.7 0.1,-0.1 0.2,-0.3 0.4,-0.4 l 0.6,-0.6 c 0.5,-0.5 1.1,-0.9 1.7,-1.2 2.3,-1.4 4.6,-2.7 6.9,-4.1 4.5,-2.9 8.6,-6.3 12.5,-10 2.1,-2 4.3,-4.2 5.8,-6.7 1.4,-2.6 1.8,-5.4 0.7,-8.2 0,0 0,-0.1 -0.1,-0.1 l -0.1,-0.1 h -0.4 l -0.1,0.1 c 0,0 0,0.1 -0.1,0.1 -0.9,3.3 -3.9,5.5 -6.4,7.6 -2.7,2.3 -5.4,4.6 -8.2,6.8 -2,1.5 -4,3 -6,4.4 -4,2.8 -8.1,5.4 -12.4,7.7 -1.4,0.7 -2.7,1.5 -4,2.4 l -2.7,1.8 c -0.1,0.1 -0.3,0.2 -0.5,0.3 -0.1,0 -0.1,0.1 -0.2,0.1 -0.2,0.2 -0.5,0.4 -0.8,0.6 L 97,45.4 c -0.2,0.2 -0.4,0.3 -0.5,0.5 -0.4,0.4 -0.8,0.9 -1.1,1.4 -0.2,0.5 -0.4,1 -0.3,1.6 0,0.2 0.1,0.3 0.1,0.4 v 0.1 c 0,0.1 0.1,0.2 0.1,0.3 v 0.1 c 0.1,0.1 0.1,0.2 0.2,0.2 v 0.1 l 0.2,0.2 h 0.1 c 0.1,0.1 0.2,0.1 0.3,0.2 0.1,0.1 0.2,0.1 0.3,0.1 h 0.1 c 0.1,0 0.2,0.1 0.3,0.1 0.1,0 0.2,0 0.3,0.1 h 6.9 c 0.1,0 0.2,0 0.4,0.1 h 0.2 c 0.2,0 0.4,0.1 0.6,0.1 0.7,0.2 1.5,0.5 1.9,1.1 0.6,0.9 -0.2,1.8 -0.9,2.4 -1.4,1.2 -3.3,1.5 -5,1.7 -2.1,0.3 -4.2,0.4 -6.3,0.6 -1,0.1 -2,0.3 -3,0.5 -0.1,-0.2 -0.1,-0.4 -0.2,-0.6 0,-0.1 -0.1,-0.1 -0.1,-0.2 -0.1,-0.1 -0.1,-0.2 -0.1,-0.4 0,-0.1 -0.1,-0.2 -0.1,-0.2 C 91.3,55.8 91.3,55.7 91.3,55.6 91.2,55.5 91.2,55.4 91.2,55.4 91.1,55.3 91.1,55.2 91,55.1 90.9,55 90.9,54.9 90.8,54.9 90.7,54.8 90.7,54.7 90.6,54.6 90.5,54.5 90.5,54.4 90.4,54.4 90.3,54.3 90.3,54.2 90.2,54.2 90.1,54.1 90.1,54 90,54 89.9,53.9 89.9,53.8 89.8,53.8 89.7,53.7 89.6,53.7 89.6,53.6 L 89.4,53.4 C 89.3,53.3 89.2,53.3 89.2,53.2 89.1,53.1 89,53.1 89,53 88.9,52.9 88.8,52.9 88.7,52.8 88.6,52.7 88.5,52.7 88.4,52.6 88.3,52.5 88.2,52.5 88.1,52.5 88,52.4 87.9,52.4 87.8,52.4 c -0.1,0 -0.2,-0.1 -0.3,-0.1 -0.1,0 -0.2,-0.1 -0.3,-0.1 -0.1,0 -0.2,-0.1 -0.3,-0.1 -0.1,0 -0.2,-0.1 -0.3,-0.1 -0.1,0 -0.2,-0.1 -0.3,-0.1 -0.1,0 -0.2,-0.1 -0.3,-0.1 h -1.2 c 1.1,-1.6 2.5,-2.9 4.1,-4.1 1.3,-0.9 2.6,-1.7 3.9,-2.5 2.6,-1.5 5.2,-2.9 7.6,-4.8 2.3,-1.9 4.1,-4.2 5,-7.1 1,-3.2 1.1,-7.1 -0.3,-10.2 -1.8,-3.9 -5.8,-5.3 -9.5,-6.5 1.4,-0.9 2.5,-2.1 3.4,-3.4 V 13 h -0.2 c -2.4,0.5 -4.9,0.8 -7.4,0.9 h -4.1 c -0.4,0 -0.8,0 -1.2,-0.1 H 85.6 C 85,13.8 84.5,13.7 84,13.7 h -2.3 c -0.2,0 -0.4,0 -0.6,0.1 H 81 c -0.2,0 -0.5,0.1 -0.7,0.1 -0.1,0 -0.1,0 -0.2,0.1 -0.2,0.1 -0.3,0.1 -0.5,0.2 -0.1,0 -0.1,0.1 -0.2,0.1 -0.2,0.1 -0.3,0.1 -0.5,0.2 -0.1,0 -0.1,0.1 -0.2,0.1 -0.2,0.1 -0.4,0.2 -0.6,0.4 -1.4,0.9 -2.7,2.4 -2.8,4.1 -0.5,0 -0.9,-0.1 -1.4,-0.1 h -3.4 c -0.3,0 -0.6,0 -0.8,0.1 -0.2,0 -0.4,0 -0.6,0.1 -0.3,0 -0.6,0.1 -0.9,0.1 -0.2,0 -0.4,0 -0.6,0.1 -0.3,0 -0.6,0.1 -0.9,0.1 -0.2,0 -0.3,0.1 -0.5,0.1 -0.4,0.1 -0.8,0.1 -1.1,0.2 -0.1,0 -0.2,0 -0.2,0.1 -0.5,0.1 -0.9,0.2 -1.4,0.3 -0.1,0 -0.2,0.1 -0.4,0.1 -0.4,0.1 -0.7,0.2 -1,0.3 -0.2,0.1 -0.3,0.1 -0.5,0.1 L 60.7,21 c -0.2,0.1 -0.4,0.1 -0.5,0.2 -0.3,0.1 -0.6,0.2 -0.8,0.3 -0.2,0.1 -0.4,0.1 -0.6,0.2 -0.3,0.1 -0.5,0.2 -0.8,0.3 -0.2,0.1 -0.4,0.1 -0.6,0.2 -0.3,0.1 -0.5,0.2 -0.8,0.3 -0.2,0.1 -0.4,0.2 -0.5,0.2 -0.3,0.1 -0.5,0.2 -0.8,0.4 -0.2,0.1 -0.3,0.2 -0.5,0.2 -0.3,0.1 -0.6,0.3 -0.9,0.4 -0.1,0.1 -0.3,0.1 -0.4,0.2 -0.4,0.2 -0.8,0.4 -1.2,0.7 l -1.5,0.9 c -0.2,0.2 -0.2,0.5 0.1,0.6 h 0.7 c 0.1,0 0.2,0 0.4,-0.1 0.7,-0.1 1.3,-0.2 2,-0.3 2.1,-0.3 4.3,-0.7 6.5,-0.9 2.6,-0.3 5.2,-0.5 7.8,-0.5 h 3.9 c 0.2,0 0.4,0 0.5,0.1 h 0.4 c 0.2,0 0.4,0.1 0.6,0.1 0.1,0 0.2,0 0.4,0.1 0.2,0 0.4,0.1 0.6,0.1 0.1,0 0.2,0 0.3,0.1 0.3,0.1 0.6,0.1 0.9,0.2 0.4,0.1 1,0.3 1.4,0.5 0.3,0.1 0.5,0.2 0.8,0.3 -2.3,0.8 -4.6,1.6 -7,2.3 -4.2,1.4 -8.5,2.9 -12.7,4.3 -1,0.3 -1.9,0.7 -2.9,1 -0.1,0 -0.1,0 -0.1,0.1 l -0.1,0.1 V 34 h 0.3 c 3.4,-0.5 6.9,-1 10.3,-1.5 0.8,-0.1 1.6,-0.2 2.5,-0.4 4.7,-0.7 9.3,-1.4 14,-2.1 0.3,-0.1 0.7,-0.1 1.1,-0.2 0.1,0 0.2,0 0.3,-0.1 0.6,-0.1 1.3,-0.2 1.9,-0.4 0.1,0 0.2,0 0.3,-0.1 0.4,-0.1 0.8,-0.2 1.1,-0.2 0.3,-0.1 0.5,-0.1 0.7,-0.1 0.2,0 0.4,-0.1 0.6,-0.1 h 0.2 c 0.2,0 0.3,-0.1 0.5,-0.1 h 2.7 c 0.1,0 0.2,0 0.4,0.1 h 0.3 c 0.2,0 0.4,0.1 0.6,0.1 h 0.1 c 1.5,0.3 3.4,1.2 3.9,2.8 0.5,1.7 -1.1,3.2 -2.4,4 -1.5,0.9 -3.1,1.4 -4.8,1.8 -4.4,1.2 -9.1,1.3 -13.4,3.1 -3.5,1.4 -6.5,3.7 -8.6,6.9 -0.7,1 -1.2,2.1 -1.7,3.3 -1,0.7 -1.9,1.4 -2.8,2.3 -0.4,0.4 -0.7,0.8 -1,1.2 -0.2,0.3 -0.5,0.7 -0.7,1.1 -0.5,0.9 -1,1.9 -1.3,2.9 -0.6,2.5 -0.6,4.4 -0.4,5.6 0.9,-1.2 2.8,-1.8 2.9,-1.8 l 1.1,-0.3 -0.5,1 c -0.1,0.2 -0.1,0.3 -0.2,0.5 -0.6,1.4 -0.8,2.6 -0.8,3.7 0,0.7 0.1,1.4 0.2,1.9 0.5,-1.6 1.7,-2.4 1.7,-2.4 l 0.9,-0.6 -0.1,1 c -0.1,0.6 -0.1,1.2 -0.1,1.9 v 0.9 c 0.1,1.5 0.5,3.1 1.2,4.4 0.4,0.7 0.8,1.3 1.2,1.9 0,0 0,0.1 0.1,0.1 l 0.1,0.1 h 0.2 c 0,0 0.1,0 0.1,-0.1 0,-0.1 0.1,-0.1 0.1,-0.2 v -0.1 c -0.2,-0.9 -0.3,-1.9 -0.3,-2.9 0.1,0.3 0.2,0.6 0.4,0.9 0.8,1.9 1.9,3.6 3.2,5.1 0.4,0.5 0.9,0.9 1.3,1.3 0.3,0.3 0.6,0.5 1,0.8 0,0 0.1,0 0.1,0.1 H 74 c 0,0 0.1,0 0.1,-0.1 0,0 0,-0.1 0.1,-0.1 v -0.1 c -0.4,-0.9 -0.5,-1.9 -0.6,-2.9 0.1,0.3 0.3,0.5 0.5,0.8 1.3,1.8 3.3,3.2 5.3,4.1 0.5,0.3 1.1,0.5 1.6,0.7 2.8,1.1 5.6,2.2 8.3,3.6 0.4,0.2 0.8,0.4 1.1,0.6 1,0.6 1.9,1.4 2.8,2.2 1.4,1.4 2.5,3.1 3.4,4.8 0.2,0.4 0.4,0.8 0.6,1.3 1.1,2.6 1.8,5.2 2.6,7.9 0.1,0.4 0.3,0.9 0.4,1.3 1.3,3.6 2.3,7.5 3,11.3 0.6,3 1.1,6 1.4,9.1 0.2,2 0.3,4 0.2,6 -0.1,0.1 -0.3,0.2 -0.4,0.4 -0.4,0.4 -0.8,1 -1.3,1.4 -0.1,0.1 -0.2,0.1 -0.3,0.2 0,0 -0.1,0 -0.1,0.1 -0.1,0 -0.1,0.1 -0.2,0.1 h -1.6 c -0.1,0 -0.2,0 -0.3,-0.1 -0.2,0 -0.3,-0.1 -0.5,-0.1 -0.2,0 -0.4,-0.1 -0.6,-0.1 h -0.2 c -0.1,0 -0.3,0 -0.4,-0.1 h -1.5 c -0.2,0 -0.4,0 -0.6,0.1 h -0.1 c -0.2,0 -0.4,0.1 -0.6,0.1 H 96 c -0.2,0.1 -0.4,0.1 -0.6,0.2 h -0.1 l -0.6,0.3 c -1.5,0.9 -2.1,2.8 -2,4.5 0,1.7 0.7,3.3 1.9,4.6 l 0.1,0.1 h 0.2 l 0.1,-0.1 0.1,-0.1 v -0.2 c 0,0 0,-0.1 -0.1,-0.1 l -0.2,-0.2 c -0.7,-1 -0.3,-2.3 0.5,-3.1 0.1,0 0.1,-0.1 0.2,-0.1 h 0.1 l 0.1,-0.1 0.1,-0.1 c 0.1,-0.1 0.1,-0.1 0.2,-0.1 0.1,0 0.1,-0.1 0.2,-0.1 h 0.1 c 0.1,0 0.1,0 0.2,-0.1 h 0.6 c 0.1,0 0.1,0.1 0.2,0.1 0.4,0.3 0.5,0.9 0.9,1.2 0.1,0.1 0.3,0.2 0.5,0.3 0,0 0.1,0 0.1,0.1 0.2,0.1 0.4,0.2 0.5,0.2 0.2,0.1 0.4,0.1 0.6,0.1 h 1.1 c 0.1,0 0.3,0 0.4,-0.1 -0.2,0.1 -0.4,0.2 -0.5,0.4 -1.1,0.8 -2.4,1.5 -3.3,2.6 -0.8,0.9 -1.3,2.1 -1.4,3.3 -0.3,2.6 1,5.1 3.2,6.6 h 0.2 l 0.1,-0.1 v -0.2 c -0.8,-1.6 -1.2,-4 0.3,-5.4 1.1,-1 2.8,-0.8 3.9,-1.8 0,0.3 0,0.6 0.1,0.9 0.1,0.3 0.1,0.6 0.2,0.9 l 0.3,0.9 c 0.1,0.3 0.3,0.6 0.4,0.9 0.5,0.9 0.9,1.9 1.6,2.6 0.7,0.8 1.7,1.3 2.6,1.8 h 0.2 c 0,0 0.1,0 0.1,-0.1 v -0.4 c -1.3,-1.9 -1.8,-4.1 -1.7,-6.4 0,-1.1 0.2,-2.3 0.5,-3.4 0.3,-1.1 0.9,-2.4 2.1,-2.5 0.9,-0.1 1.8,0.2 2.5,-0.6 0.5,-0.7 0.6,-1.7 0.5,-2.5 -0.1,-0.5 -0.4,-0.9 -0.7,-1.4 -0.2,-0.3 -0.6,-0.7 -0.3,-1.1 0,-0.1 0.1,-0.1 0.2,-0.2 h 0.1 c 0.1,0 0.1,0 0.1,-0.1 h 3.1 c -0.2,1 0.8,1.9 1.4,2.5 0.8,0.8 0.7,1.8 0.1,2.7 -0.1,0.1 -0.1,0.2 -0.2,0.3 l -0.1,0.1 c -0.1,0.1 -0.1,0.1 -0.1,0.2 l -0.1,0.1 -0.2,0.2 -0.1,0.1 c -0.1,0.1 -0.1,0.1 -0.2,0.1 l -0.1,0.1 c -0.1,0 -0.1,0.1 -0.2,0.1 -0.1,0 -0.1,0.1 -0.1,0.1 -0.1,0 -0.1,0.1 -0.2,0.1 -0.1,0 -0.1,0 -0.2,0.1 -0.1,0.1 -0.1,0 -0.2,0.1 h -0.7 v 0.5 l 0.1,0.1 c 0,0 0.1,0 0.1,0.1 0.2,0.1 0.5,0.1 0.7,0.1 h 1.5 c 0.1,0 0.3,-0.1 0.4,-0.1 0.1,0 0.1,0 0.2,-0.1 0.2,-0.1 0.3,-0.1 0.5,-0.2 h 0.1 c 0.2,-0.1 0.3,-0.2 0.5,-0.3 0.1,0 0.1,-0.1 0.1,-0.1 l 0.3,-0.3 0.1,-0.1 c 0.1,-0.1 0.3,-0.3 0.4,-0.5 1.2,-1.8 0.6,-3.6 0.3,-5.6 -0.1,-0.5 -0.1,-1 -0.1,-1.5 v -0.3 c 0.1,-0.5 0.3,-1 0.4,-1.5 0.2,-0.8 0.2,-1.6 -0.3,-2.3 l -0.2,-0.2 c 0,0 -0.1,0 -0.1,-0.1 -0.1,-0.1 -0.1,-0.1 -0.2,-0.1 h -0.1 c -0.1,-0.1 -0.2,-0.1 -0.2,-0.1 -0.1,0 -0.1,-0.1 -0.2,-0.1 h -1.1 c -0.1,0 -0.2,0 -0.3,0.1 h -0.1 c -0.1,0 -0.2,0 -0.2,0.1 h -0.1 c -0.1,0 -0.2,0.1 -0.3,0.1 -0.1,0 -0.2,0.1 -0.4,0.1 0,0 -0.1,0 -0.1,0.1 -0.1,0 -0.2,0.1 -0.2,0.1 0,0 -0.1,0 -0.1,0.1 -0.1,0 -0.1,0.1 -0.2,0.1 -0.1,0.1 -0.3,0.1 -0.4,0.2 -0.6,0.2 -1.1,0.4 -1.7,0.6 -0.1,0 -0.2,0 -0.3,0.1 h -0.6 c -0.1,0 -0.2,-0.1 -0.2,-0.1 h -0.1 c -0.1,0 -0.1,-0.1 -0.2,-0.1 l -0.1,-0.1 -0.2,-0.2 c -0.7,-0.9 -1,-1.9 -1.3,-3 -0.4,-1.6 -0.8,-3.3 -1.1,-5 -0.6,-3.1 -1.1,-6.2 -1.9,-9.2 -0.6,-2.3 -1.3,-4.5 -1.8,-6.8 -0.6,-2.6 -0.9,-5.4 -0.3,-8.1 0.5,-2.2 1.6,-4.3 1.8,-6.5 1.2,0.6 2.6,0.7 3.8,1.1 1.7,0.4 3.5,0.9 5.2,1.3 2.6,2.8 5.4,5.4 8.9,6.8 0.2,0.1 0.4,0.1 0.6,0.2 0.1,0 0.1,0 0.2,0.1 0.1,0.1 0.3,0.1 0.4,0.1 0.1,0 0.1,0.1 0.2,0.1 0.2,0.1 0.3,0.1 0.5,0.1 h 0.1 c 0.2,0.1 0.4,0.1 0.7,0.1 h 0.2 c 0.2,0 0.3,0.1 0.5,0.1 h 1.6 c 0.2,0 0.4,-0.1 0.7,-0.1 1.6,-0.4 2.7,-1.9 2.7,-3.5 v -0.5 c 0.1,0.1 0.3,0.1 0.4,0.2 h 0.1 c 0.1,0 0.3,0.1 0.4,0.1 h 0.6 c 0.1,0 0.3,0 0.4,-0.1 h 0.1 c 0.1,0 0.2,-0.1 0.4,-0.1 0,0 0.1,0 0.1,-0.1 0.1,-0.1 0.3,-0.1 0.4,-0.2 l 0.3,-0.3 0.1,-0.1 c 0.1,-0.1 0.2,-0.3 0.3,-0.4 0.9,-1.6 -0.1,-3.8 -1.1,-5.1 -0.8,-1 -1.7,-1.8 -2.8,-2.5 0.8,-1.4 0.8,-3.1 0.2,-4.6 -0.6,-1.7 -1.9,-2.8 -3.6,-3.5 -1.8,-0.8 -3.8,-0.9 -5.7,-1.3 -2.2,-0.5 -4.3,-1.1 -6.3,-1.9 -1.7,-0.7 -3.3,-1.5 -4.8,-2.4 l -0.5,-0.1 -0.9,-0.1 -0.9,-0.1 c -2.1,-0.2 -4.1,-1 -6.1,-2.5 -1.6,-1.2 -3.2,-2.6 -4.7,-4.1 v 0.1 c 0.3,0.8 0.6,1.5 1,2.1 0.2,0.3 0.6,0.8 0.4,1.4 -0.1,0.2 -0.2,0.5 -0.6,0.7 -0.1,0 -0.1,0.1 -0.2,0.1 h -0.5 c -0.1,0 -0.2,0 -0.2,-0.1 h -0.1 c -0.1,0 -0.1,-0.1 -0.2,-0.1 h -0.1 c -0.1,0 -0.1,-0.1 -0.2,-0.1 -0.1,0 -0.1,-0.1 -0.2,-0.1 -0.5,-0.2 -1,-0.4 -1.4,-0.7 -1.6,-0.9 -2.9,-2 -3.9,-3.4 L 93.8,68.7 V 69 c -0.1,0.4 -0.3,0.8 -0.6,1.1 -0.1,0.1 -0.1,0.1 -0.2,0.1 h -0.1 c 0,0 -0.1,0 -0.1,0.1 h -0.7 c -0.1,0 -0.1,0 -0.2,-0.1 h -0.1 c -0.1,0 -0.1,0 -0.2,-0.1 -0.1,0 -0.1,-0.1 -0.2,-0.1 h -0.1 c -0.1,0 -0.1,-0.1 -0.2,-0.1 H 91 c -0.1,0 -0.1,-0.1 -0.2,-0.1 h -0.1 c -0.1,0 -0.1,-0.1 -0.1,-0.1 h -0.1 c -0.1,0 -0.1,-0.1 -0.1,-0.1 -1.2,-0.8 -2.3,-1.8 -3.3,-3.1 -0.3,-0.4 -0.2,-0.9 0.1,-1.2 0.1,-0.1 0.1,-0.1 0.2,-0.1 H 88 c 0,0 0.1,0 0.1,0.1 h 0.1 c 0.1,0 0.1,0.1 0.1,0.1 0.6,0.8 1.3,1.4 2,2 0.2,0.2 0.4,0.4 0.7,0.5 l 0.1,0.1 c 0.4,0.3 0.7,0.4 0.8,0.5 0.1,0 0.1,0.1 0.1,0.1 0,-0.1 0.1,-0.4 0.1,-0.5 v -0.2 c 0,-0.3 0,-0.7 0.1,-1.1 v -1.2 l 0.1,-0.5 c 0.1,-0.2 0.3,-0.4 0.6,-0.4 h 0.5 c 0,0 0.1,0 0.1,0.1 h 0.1 c 0.1,0 0.1,0.1 0.1,0.1 l 0.2,0.4 c 0.1,0.3 0.2,0.6 0.4,0.9 1,2.1 2.7,3.8 5,4.9 -0.3,-0.6 -0.6,-1.2 -0.8,-2 -0.3,-1 -0.5,-1.9 -0.6,-2.8 V 66 c 0,-0.3 0.2,-0.6 0.5,-0.7 0.1,0 0.1,0 0.2,-0.1 h 0.6 c 0.1,0 0.1,0.1 0.2,0.1 l 0.3,0.3 c 0.6,0.7 1.1,1.3 1.6,1.8 1.5,1.6 3.1,3.2 5,4.4 0.7,0.5 1.5,0.9 2.3,1.2 1.3,0.6 2.7,1 4.1,1.3 0.1,0 0.3,0.1 0.4,0.1 0.1,0 0.3,0.1 0.4,0.1 h 0.1 c 0.1,0 0.2,0.1 0.4,0.1 h 1 c 0.6,-0.1 1.3,-0.5 1,-1.2 -0.2,-0.4 -0.6,-0.6 -1,-0.8 -0.6,-0.3 -1.1,-0.7 -1.7,-1 -0.9,-0.6 -1.9,-1.3 -2.7,-2.1 -1,-0.9 -2,-1.9 -2.8,-3 -0.1,-0.2 -0.2,-0.4 -0.4,-0.5 -0.2,-0.2 -0.5,-0.7 -0.4,-1 v -0.3 l 0.1,-0.1 h 0.3 c 0,0 0.1,0 0.1,0.1 0,0 0.1,0 0.1,0.1 l 0.1,0.1 0.1,0.1 0.1,0.1 0.1,0.1 c 0.3,0.2 0.5,0.4 0.8,0.7 2,1.7 4.2,3.2 6.4,4.5 2.2,1.3 4.6,2.3 7.2,2.6 0.3,0 0.6,0.1 0.9,0.1 h 1.9 c 0.2,0 0.4,0 0.6,-0.1 h 0.2 c 0.2,0 0.5,-0.1 0.7,-0.1 h 0.1 c 0.3,-0.1 0.6,-0.1 0.8,-0.2 0.1,0 0.1,0 0.2,-0.1 0.2,-0.1 0.4,-0.1 0.6,-0.2 0.1,0 0.2,-0.1 0.2,-0.1 0.3,-0.1 0.5,-0.2 0.8,-0.3 1,-0.4 1.9,-1 2.6,-1.9 0.6,-0.8 0.2,-1.5 -0.7,-1.6 h -3.6 c -1.3,-0.1 -2.6,-0.3 -3.9,-0.5 -2.5,-0.5 -5,-1.3 -7.4,-2.4 -1.1,-0.5 -2.3,-1.2 -3.3,-1.8 -0.5,-0.3 -1.1,-0.6 -1.5,-1 l -0.1,-0.1 c 0,0 0,-0.1 -0.1,-0.1 v -0.7 c 0,0 0,-0.1 0.1,-0.1 0,0 0,-0.1 0.1,-0.1 l 0.1,-0.1 h 1 c 1.2,0.3 2.4,1 3.6,1.4 0.4,0.1 0.7,0.2 1.1,0.4 1.1,0.3 2.3,0.6 3.4,0.8 2.5,0.6 5.1,1 7.7,1.2 0.3,0 0.7,0.1 1,0.1 h 2.5 c 0.2,0 0.5,0 0.8,-0.1 h 0.2 c 0.2,0 0.5,-0.1 0.7,-0.1 h 0.1 c 0.2,-0.1 0.5,-0.1 0.7,-0.2 0.1,0 0.1,0 0.2,-0.1 0.2,-0.1 0.5,-0.2 0.7,-0.3 1.8,-0.7 3.1,-2.1 4,-3.8 0.4,-0.8 0.6,-1.6 0,-2.3 l -0.2,-0.2 C 139.1,58.3 139,58.3 139,58.2 h -0.1 c -0.1,0 -0.2,-0.1 -0.3,-0.1 h -0.7 c -0.1,0 -0.3,0.1 -0.4,0.1 h -0.1 c -0.1,0 -0.3,0.1 -0.4,0.1 -0.1,0 -0.3,0.1 -0.4,0.1 -2.6,0.7 -5.4,1.1 -8.1,1.2 -0.5,0 -1,0 -1.4,0.1 h -3.3 c -0.5,0 -1,-0.1 -1.4,-0.1 h -0.1 c -0.5,0 -0.9,-0.1 -1.4,-0.1 -0.1,0 -0.3,0 -0.4,-0.1 -0.3,0 -0.7,-0.1 -1,-0.1 -0.2,0 -0.3,-0.1 -0.5,-0.1 -0.3,-0.1 -0.7,-0.1 -1,-0.2 -0.1,0 -0.3,-0.1 -0.4,-0.1 -0.5,-0.1 -0.9,-0.2 -1.4,-0.3 -0.1,0 -1.1,-0.2 -1,-0.4 l 0.1,-0.1 h 4.1 c 2.3,-0.1 4.5,-0.3 6.8,-0.6 2.5,-0.4 5,-1 7.4,-1.9 2.1,-0.8 4.2,-1.8 5.9,-3.3 1.8,-1.6 2.9,-4 2.3,-6.4 0,-0.1 -0.1,-0.2 -0.1,-0.2 v -0.1 c 0,-0.1 -0.1,-0.1 -0.1,-0.2 0,0 0,-0.1 -0.1,-0.1 l -0.1,-0.1 -0.1,-0.1 -0.1,-0.1 c 0,0 -0.1,0 -0.1,-0.1 L 141,44.8 c 0,0 -0.1,0 -0.1,-0.1 0,0 -0.1,0 -0.1,-0.1 h -0.5 c -0.7,0 -1.3,0.7 -1.9,1.1 -1.3,0.9 -2.8,1.6 -4.2,2.2 l -3.3,1.2 c -0.7,0.2 -1.3,0.4 -2,0.6 -1.7,0.5 -3.4,0.9 -5.1,1.3 -0.4,0.1 -0.8,0.2 -1.2,0.2 -2,0.4 -4.1,0.8 -6.1,1.1 h -0.2 c -0.2,0 -0.5,0.1 -0.7,0.1 h -0.3 l 0.1,-0.1 c 0,0 0.1,-0.1 0.2,-0.1 0.9,-0.6 1.9,-1 2.9,-1.5 1,-0.5 2,-1.1 3.1,-1.6 4.4,-2.3 8.8,-4.6 12.8,-7.6 4,-2.9 7.6,-6.7 9,-11.6 0.2,-0.6 0.3,-1.3 0.4,-1.9 -1.2,-1.9 -1.1,-2.3 -1.2,-2.8 z"
   id="path2"
   style="fill:#000000;fill-opacity:1" />
         <path
   d="m 158.3,5.8 c -5.3,16.4 -6.9,33.8 -6.6,51 0.3,23 3.6,47.4 -6.6,68 -7.3,14.6 -20.9,25.7 -36.4,31 -7.8,2.7 -16.1,3.9 -24.4,3.9 -8.1,0 -16.2,-1.2 -23.9,-3.4 C 48,152.8 36.1,146.4 27.9,136.5 19.4,126.3 15.5,113.1 14,99.9 12.6,86.7 13.5,73.5 13.8,60.2 14.2,41.8 13.3,23.1 7.3,5.7 c 12.3,1.2 24.7,1.7 37,1.7 9.4,0 18.8,-0.3 28.2,-0.8 3.4,-0.2 6.8,-0.3 10.3,-0.3 3.5,0 7,0.1 10.5,0.3 9.5,0.5 19.1,0.9 28.6,0.9 C 134,7.6 146.2,7 158.3,5.8 M 165.4,0 157.8,0.8 C 146.4,2 134.7,2.6 121.9,2.6 113,2.6 103.7,2.3 93.5,1.7 89.9,1.5 86.3,1.4 82.7,1.4 79.2,1.4 75.7,1.5 72.2,1.7 62.5,2.2 53.1,2.5 44.3,2.5 31.7,2.5 19.4,2 7.8,0.9 L 0,0.2 2.5,7.5 C 5.7,16.9 9.3,31.3 8.7,60.2 8.6,63 8.5,65.9 8.5,68.6 8.2,79 7.8,89.8 9,100.5 c 1.8,16.2 6.8,29.4 15,39.2 8.1,9.8 20.2,17.2 35,21.4 8.4,2.4 16.9,3.6 25.3,3.6 9.1,0 17.8,-1.4 26,-4.2 17.4,-5.9 31.7,-18.1 39.3,-33.5 9,-18.1 8.2,-38.5 7.5,-58.1 -0.1,-4 -0.3,-8.2 -0.4,-12.2 -0.3,-19.2 1.8,-35.3 6.4,-49.4 z"
   id="path3"
   style="fill:#000000;fill-opacity:1"
   sodipodi:nodetypes="ccccscccccscsccccsscscsccccccccscccccc" /></g></g></svg>
