<?xml version="1.0" encoding="UTF-8" standalone="no"?>
<!-- Created with Inkscape (http://www.inkscape.org/) -->

<svg
   width="4.5289345mm"
   height="6.0580621mm"
   viewBox="0 0 4.5289345 6.0580621"
   version="1.1"
   id="svg1"
   xml:space="preserve"
   inkscape:export-filename="backoffice"
   inkscape:export-xdpi="96"
   inkscape:export-ydpi="96"
   sodipodi:docname="logomark-dark.svg"
   inkscape:version="1.3 (1:1.3+202307231459+0e150ed6c4)"
   xmlns:inkscape="http://www.inkscape.org/namespaces/inkscape"
   xmlns:sodipodi="http://sodipodi.sourceforge.net/DTD/sodipodi-0.dtd"
   xmlns="http://www.w3.org/2000/svg"
   xmlns:svg="http://www.w3.org/2000/svg"><sodipodi:namedview
     id="namedview1"
     pagecolor="#505050"
     bordercolor="#eeeeee"
     borderopacity="1"
     inkscape:showpageshadow="0"
     inkscape:pageopacity="0"
     inkscape:pagecheckerboard="0"
     inkscape:deskcolor="#d1d1d1"
     inkscape:document-units="mm"
     inkscape:zoom="8.413022"
     inkscape:cx="12.956105"
     inkscape:cy="35.242984"
     inkscape:window-width="1920"
     inkscape:window-height="1051"
     inkscape:window-x="1920"
     inkscape:window-y="0"
     inkscape:window-maximized="1"
     inkscape:current-layer="layer1" /><defs
     id="defs1"><linearGradient
   id="swatch55"><stop
     style="stop-color:#15c77b;stop-opacity:1;"
     offset="0"
     id="stop55" /></linearGradient><clipPath
   clipPathUnits="userSpaceOnUse"
   id="cp1"><path
     d="M -575,-1324 H 5822 V 2306 H -575 Z"
     id="path1" /></clipPath><filter
   style="color-interpolation-filters:sRGB"
   inkscape:label="Colorize"
   id="filter16"
   x="0"
   y="0"
   width="1"
   height="1"><feComposite
     in2="SourceGraphic"
     operator="arithmetic"
     k1="0"
     k2="1"
     result="composite1"
     id="feComposite15"
     k3="0"
     k4="0" /><feColorMatrix
     in="composite1"
     values="1"
     type="saturate"
     result="colormatrix1"
     id="feColorMatrix15" /><feFlood
     flood-opacity="1"
     flood-color="rgb(255,255,255)"
     result="flood1"
     id="feFlood15" /><feBlend
     in="flood1"
     in2="colormatrix1"
     mode="multiply"
     result="blend1"
     id="feBlend15" /><feBlend
     in2="blend1"
     mode="screen"
     result="blend2"
     id="feBlend16" /><feColorMatrix
     in="blend2"
     values="1"
     type="saturate"
     result="colormatrix2"
     id="feColorMatrix16" /><feComposite
     in="colormatrix2"
     in2="SourceGraphic"
     operator="in"
     result="fbSourceGraphic"
     id="feComposite16" /><feColorMatrix
     result="fbSourceGraphicAlpha"
     in="fbSourceGraphic"
     values="0 0 0 -1 0 0 0 0 -1 0 0 0 0 -1 0 0 0 0 1 0"
     id="feColorMatrix17" /><feComposite
     id="feComposite17"
     in2="fbSourceGraphic"
     operator="arithmetic"
     k1="0"
     k2="1"
     result="composite1"
     in="fbSourceGraphic"
     k3="0"
     k4="0" /><feColorMatrix
     id="feColorMatrix18"
     in="composite1"
     values="1"
     type="saturate"
     result="colormatrix1" /><feFlood
     id="feFlood18"
     flood-opacity="1"
     flood-color="rgb(255,255,255)"
     result="flood1" /><feBlend
     id="feBlend18"
     in="flood1"
     in2="colormatrix1"
     mode="multiply"
     result="blend1" /><feBlend
     id="feBlend19"
     in2="blend1"
     mode="screen"
     result="blend2" /><feColorMatrix
     id="feColorMatrix19"
     in="blend2"
     values="1"
     type="saturate"
     result="colormatrix2" /><feComposite
     id="feComposite19"
     in="colormatrix2"
     in2="fbSourceGraphic"
     operator="in"
     result="fbSourceGraphic" /><feColorMatrix
     result="fbSourceGraphicAlpha"
     in="fbSourceGraphic"
     values="0 0 0 -1 0 0 0 0 -1 0 0 0 0 -1 0 0 0 0 1 0"
     id="feColorMatrix20" /><feComposite
     id="feComposite20"
     in2="fbSourceGraphic"
     operator="arithmetic"
     k1="0"
     k2="1"
     result="composite1"
     in="fbSourceGraphic"
     k3="0"
     k4="0" /><feColorMatrix
     id="feColorMatrix21"
     in="composite1"
     values="1"
     type="saturate"
     result="colormatrix1" /><feFlood
     id="feFlood21"
     flood-opacity="1"
     flood-color="rgb(255,255,255)"
     result="flood1" /><feBlend
     id="feBlend21"
     in="flood1"
     in2="colormatrix1"
     mode="multiply"
     result="blend1" /><feBlend
     id="feBlend22"
     in2="blend1"
     mode="screen"
     result="blend2" /><feColorMatrix
     id="feColorMatrix22"
     in="blend2"
     values="1"
     type="saturate"
     result="colormatrix2" /><feComposite
     id="feComposite22"
     in="colormatrix2"
     in2="fbSourceGraphic"
     operator="in"
     result="fbSourceGraphic" /><feColorMatrix
     result="fbSourceGraphicAlpha"
     in="fbSourceGraphic"
     values="0 0 0 -1 0 0 0 0 -1 0 0 0 0 -1 0 0 0 0 1 0"
     id="feColorMatrix23" /><feComposite
     id="feComposite23"
     in2="fbSourceGraphic"
     operator="arithmetic"
     k1="0"
     k2="1"
     result="composite1"
     in="fbSourceGraphic"
     k3="0"
     k4="0" /><feColorMatrix
     id="feColorMatrix24"
     in="composite1"
     values="1"
     type="saturate"
     result="colormatrix1" /><feFlood
     id="feFlood24"
     flood-opacity="1"
     flood-color="rgb(255,255,255)"
     result="flood1" /><feBlend
     id="feBlend24"
     in="flood1"
     in2="colormatrix1"
     mode="multiply"
     result="blend1" /><feBlend
     id="feBlend25"
     in2="blend1"
     mode="screen"
     result="blend2" /><feColorMatrix
     id="feColorMatrix25"
     in="blend2"
     values="1"
     type="saturate"
     result="colormatrix2" /><feComposite
     id="feComposite25"
     in="colormatrix2"
     in2="fbSourceGraphic"
     operator="in"
     result="fbSourceGraphic" /><feColorMatrix
     result="fbSourceGraphicAlpha"
     in="fbSourceGraphic"
     values="0 0 0 -1 0 0 0 0 -1 0 0 0 0 -1 0 0 0 0 1 0"
     id="feColorMatrix26" /><feComposite
     id="feComposite26"
     in2="fbSourceGraphic"
     operator="arithmetic"
     k1="0"
     k2="1"
     result="composite1"
     in="fbSourceGraphic"
     k3="0"
     k4="0" /><feColorMatrix
     id="feColorMatrix27"
     in="composite1"
     values="1"
     type="saturate"
     result="colormatrix1" /><feFlood
     id="feFlood27"
     flood-opacity="1"
     flood-color="rgb(255,255,255)"
     result="flood1" /><feBlend
     id="feBlend27"
     in="flood1"
     in2="colormatrix1"
     mode="multiply"
     result="blend1" /><feBlend
     id="feBlend28"
     in2="blend1"
     mode="screen"
     result="blend2" /><feColorMatrix
     id="feColorMatrix28"
     in="blend2"
     values="1"
     type="saturate"
     result="colormatrix2" /><feComposite
     id="feComposite28"
     in="colormatrix2"
     in2="fbSourceGraphic"
     operator="in"
     result="fbSourceGraphic" /><feColorMatrix
     result="fbSourceGraphicAlpha"
     in="fbSourceGraphic"
     values="0 0 0 -1 0 0 0 0 -1 0 0 0 0 -1 0 0 0 0 1 0"
     id="feColorMatrix29" /><feComposite
     id="feComposite29"
     in2="fbSourceGraphic"
     operator="arithmetic"
     k1="0"
     k2="1"
     result="composite1"
     in="fbSourceGraphic"
     k3="0"
     k4="0" /><feColorMatrix
     id="feColorMatrix30"
     in="composite1"
     values="1"
     type="saturate"
     result="colormatrix1" /><feFlood
     id="feFlood30"
     flood-opacity="1"
     flood-color="rgb(255,255,255)"
     result="flood1" /><feBlend
     id="feBlend30"
     in="flood1"
     in2="colormatrix1"
     mode="multiply"
     result="blend1" /><feBlend
     id="feBlend31"
     in2="blend1"
     mode="screen"
     result="blend2" /><feColorMatrix
     id="feColorMatrix31"
     in="blend2"
     values="1"
     type="saturate"
     result="colormatrix2" /><feComposite
     id="feComposite31"
     in="colormatrix2"
     in2="fbSourceGraphic"
     operator="in"
     result="composite2" /></filter><filter
   style="color-interpolation-filters:sRGB"
   inkscape:label="Greyscale"
   id="filter1"
   x="0"
   y="0"
   width="1"
   height="1"><feColorMatrix
     values="0.21 0.72 0.072 0 0 0.21 0.72 0.072 0 0 0.21 0.72 0.072 0 0 0 0 0 1 0 "
     id="feColorMatrix1"
     result="fbSourceGraphic" /><feColorMatrix
     result="fbSourceGraphicAlpha"
     in="fbSourceGraphic"
     values="0 0 0 -1 0 0 0 0 -1 0 0 0 0 -1 0 0 0 0 1 0"
     id="feColorMatrix2" /><feColorMatrix
     id="feColorMatrix3"
     values="0.21 0.72 0.072 0 0 0.21 0.72 0.072 0 0 0.21 0.72 0.072 0 0 0 0 0 1 0 "
     in="fbSourceGraphic" /></filter><style
   id="style1-26">.cls-1{fill:#fff;}.cls-2{fill:#f68d2e;}</style><filter
   style="color-interpolation-filters:sRGB"
   inkscape:label="Greyscale"
   id="filter32"
   x="0"
   y="0"
   width="1"
   height="1"><feColorMatrix
     values="-0.826841 0.72 0.072 5 0 -0.826841 0.72 0.072 5 0 -0.826841 0.72 0.072 5 0 0 0 0 1 0 "
     id="feColorMatrix32" /></filter><filter
   style="color-interpolation-filters:sRGB"
   inkscape:label="Greyscale"
   id="filter33"
   x="0"
   y="0"
   width="1"
   height="1"><feColorMatrix
     values="-0.826841 0.72 0.072 5 0 -0.826841 0.72 0.072 5 0 -0.826841 0.72 0.072 5 0 0 0 0 1 0 "
     id="feColorMatrix33" /></filter><style
   id="style1-2">.cls-2{fill:#fff;}</style><filter
   style="color-interpolation-filters:sRGB"
   inkscape:label="Greyscale"
   id="filter1-0"
   x="0"
   y="0"
   width="1"
   height="1"><feColorMatrix
     values="0.21 0.72 0.072 0 0 0.21 0.72 0.072 0 0 0.21 0.72 0.072 0 0 0 0 0 1 0 "
     id="feColorMatrix1-6"
     result="fbSourceGraphic" /><feColorMatrix
     result="fbSourceGraphicAlpha"
     in="fbSourceGraphic"
     values="0 0 0 -1 0 0 0 0 -1 0 0 0 0 -1 0 0 0 0 1 0"
     id="feColorMatrix2-2" /><feColorMatrix
     id="feColorMatrix3-6"
     values="0.21 0.72 0.072 0 0 0.21 0.72 0.072 0 0 0.21 0.72 0.072 0 0 0 0 0 1 0 "
     in="fbSourceGraphic" /></filter><clipPath
   clipPathUnits="userSpaceOnUse"
   id="cp1-1"><path
     d="M -575,-1324 H 5822 V 2306 H -575 Z"
     id="path1-1" /></clipPath><filter
   style="color-interpolation-filters:sRGB"
   inkscape:label="Invert"
   id="filter4"
   x="0"
   y="0"
   width="1"
   height="1"><feColorMatrix
     values="0.21 0.72 0.072 5.01847 0 0.21 0.72 0.072 5.01847 0 0.21 0.72 0.072 5.01847 0 0 0 0 1 0 "
     id="feColorMatrix4"
     result="fbSourceGraphic" /><feColorMatrix
     result="fbSourceGraphicAlpha"
     in="fbSourceGraphic"
     values="0 0 0 -1 0 0 0 0 -1 0 0 0 0 -1 0 0 0 0 1 0"
     id="feColorMatrix14" /><feColorMatrix
     id="feColorMatrix15-8"
     values="-1 0 0 0 1 0 -1 0 0 1 0 0 -1 0 1 0.21 0.72 0.07 0.180564 0 "
     result="color2"
     in="fbSourceGraphic" /></filter><filter
   style="color-interpolation-filters:sRGB"
   inkscape:label="Greyscale"
   id="filter1-3"
   x="0"
   y="0"
   width="1"
   height="1"><feColorMatrix
     values="0.21 0.72 0.072 0 0 0.21 0.72 0.072 0 0 0.21 0.72 0.072 0 0 0 0 0 1 0 "
     id="feColorMatrix1-7"
     result="fbSourceGraphic" /><feColorMatrix
     result="fbSourceGraphicAlpha"
     in="fbSourceGraphic"
     values="0 0 0 -1 0 0 0 0 -1 0 0 0 0 -1 0 0 0 0 1 0"
     id="feColorMatrix2-5" /><feColorMatrix
     id="feColorMatrix3-9"
     values="0.21 0.72 0.072 0 0 0.21 0.72 0.072 0 0 0.21 0.72 0.072 0 0 0 0 0 1 0 "
     in="fbSourceGraphic" /></filter><clipPath
   clipPathUnits="userSpaceOnUse"
   id="cp1-2"><path
     d="M -575,-1324 H 5822 V 2306 H -575 Z"
     id="path1-2" /></clipPath><filter
   style="color-interpolation-filters:sRGB"
   inkscape:label="Invert"
   id="filter4-8"
   x="0"
   y="0"
   width="1"
   height="1"><feColorMatrix
     values="0.21 0.72 0.072 5.01847 0 0.21 0.72 0.072 5.01847 0 0.21 0.72 0.072 5.01847 0 0 0 0 1 0 "
     id="feColorMatrix4-9"
     result="fbSourceGraphic" /><feColorMatrix
     result="fbSourceGraphicAlpha"
     in="fbSourceGraphic"
     values="0 0 0 -1 0 0 0 0 -1 0 0 0 0 -1 0 0 0 0 1 0"
     id="feColorMatrix11" /><feColorMatrix
     id="feColorMatrix12"
     values="-1 0 0 0 1 0 -1 0 0 1 0 0 -1 0 1 0.21 0.72 0.07 0.180564 0 "
     result="color2"
     in="fbSourceGraphic" /></filter><filter
   style="color-interpolation-filters:sRGB"
   inkscape:label="Colorize"
   id="filter50"
   x="0"
   y="0"
   width="1"
   height="1"><feColorMatrix
     values="-0.826841 0.72 0.072 5 0 -0.826841 0.72 0.072 5 0 -0.826841 0.72 0.072 5 0 0 0 0 1 0 "
     id="feColorMatrix50"
     result="fbSourceGraphic" /><feColorMatrix
     result="fbSourceGraphicAlpha"
     in="fbSourceGraphic"
     values="0 0 0 -1 0 0 0 0 -1 0 0 0 0 -1 0 0 0 0 1 0"
     id="feColorMatrix51" /><feColorMatrix
     id="feColorMatrix52"
     values="-0.826841 0.72 0.072 5 0 -0.826841 0.72 0.072 5 0 -0.826841 0.72 0.072 5 0 0 0 0 1 0 "
     in="fbSourceGraphic"
     result="fbSourceGraphic" /><feColorMatrix
     result="fbSourceGraphicAlpha"
     in="fbSourceGraphic"
     values="0 0 0 -1 0 0 0 0 -1 0 0 0 0 -1 0 0 0 0 1 0"
     id="feColorMatrix56" /><feColorMatrix
     id="feColorMatrix57"
     values="-1 0 0 0 1 0 -1 0 0 1 0 0 -1 0 1 0.21 0.72 0.07 0.180564 0 "
     result="fbSourceGraphic"
     in="fbSourceGraphic" /><feColorMatrix
     result="fbSourceGraphicAlpha"
     in="fbSourceGraphic"
     values="0 0 0 -1 0 0 0 0 -1 0 0 0 0 -1 0 0 0 0 1 0"
     id="feColorMatrix34" /><feComposite
     id="feComposite34"
     in2="fbSourceGraphic"
     operator="arithmetic"
     k1="0"
     k2="1"
     result="composite1"
     in="fbSourceGraphic"
     k3="0"
     k4="0" /><feColorMatrix
     id="feColorMatrix35"
     in="composite1"
     values="1"
     type="saturate"
     result="colormatrix1" /><feFlood
     id="feFlood35"
     flood-opacity="1"
     flood-color="rgb(255,255,255)"
     result="flood1" /><feBlend
     id="feBlend35"
     in="flood1"
     in2="colormatrix1"
     mode="multiply"
     result="blend1" /><feBlend
     id="feBlend36"
     in2="blend1"
     mode="screen"
     result="blend2" /><feColorMatrix
     id="feColorMatrix36"
     in="blend2"
     values="1"
     type="saturate"
     result="colormatrix2" /><feComposite
     id="feComposite36"
     in="colormatrix2"
     in2="fbSourceGraphic"
     operator="in"
     result="fbSourceGraphic" /><feColorMatrix
     result="fbSourceGraphicAlpha"
     in="fbSourceGraphic"
     values="0 0 0 -1 0 0 0 0 -1 0 0 0 0 -1 0 0 0 0 1 0"
     id="feColorMatrix43" /><feComposite
     id="feComposite43"
     in2="fbSourceGraphic"
     operator="arithmetic"
     k1="0"
     k2="1"
     result="composite1"
     in="fbSourceGraphic"
     k3="0"
     k4="0" /><feColorMatrix
     id="feColorMatrix44"
     in="composite1"
     values="1"
     type="saturate"
     result="colormatrix1" /><feFlood
     id="feFlood44"
     flood-opacity="1"
     flood-color="rgb(210,118,118)"
     result="flood1" /><feBlend
     id="feBlend44"
     in="flood1"
     in2="colormatrix1"
     mode="multiply"
     result="blend1" /><feBlend
     id="feBlend45"
     in2="blend1"
     mode="screen"
     result="blend2" /><feColorMatrix
     id="feColorMatrix45"
     in="blend2"
     values="1"
     type="saturate"
     result="colormatrix2" /><feComposite
     id="feComposite45"
     in="colormatrix2"
     in2="fbSourceGraphic"
     operator="in"
     result="composite2" /></filter>&#10;		&#10;		&#10;		&#10;		&#10;		&#10;		&#10;		&#10;		&#10;		&#10;		&#10;		&#10;		&#10;		&#10;		&#10;	<filter
   style="color-interpolation-filters:sRGB"
   inkscape:label="Colorize"
   id="filter50-2"
   x="0"
   y="0"
   width="1"
   height="1"><feColorMatrix
     values="-0.826841 0.72 0.072 5 0 -0.826841 0.72 0.072 5 0 -0.826841 0.72 0.072 5 0 0 0 0 1 0 "
     id="feColorMatrix50-3"
     result="fbSourceGraphic" /><feColorMatrix
     result="fbSourceGraphicAlpha"
     in="fbSourceGraphic"
     values="0 0 0 -1 0 0 0 0 -1 0 0 0 0 -1 0 0 0 0 1 0"
     id="feColorMatrix51-7" /><feColorMatrix
     id="feColorMatrix52-5"
     values="-0.826841 0.72 0.072 5 0 -0.826841 0.72 0.072 5 0 -0.826841 0.72 0.072 5 0 0 0 0 1 0 "
     in="fbSourceGraphic"
     result="fbSourceGraphic" /><feColorMatrix
     result="fbSourceGraphicAlpha"
     in="fbSourceGraphic"
     values="0 0 0 -1 0 0 0 0 -1 0 0 0 0 -1 0 0 0 0 1 0"
     id="feColorMatrix56-9" /><feColorMatrix
     id="feColorMatrix57-2"
     values="-1 0 0 0 1 0 -1 0 0 1 0 0 -1 0 1 0.21 0.72 0.07 0.180564 0 "
     result="fbSourceGraphic"
     in="fbSourceGraphic" /><feColorMatrix
     result="fbSourceGraphicAlpha"
     in="fbSourceGraphic"
     values="0 0 0 -1 0 0 0 0 -1 0 0 0 0 -1 0 0 0 0 1 0"
     id="feColorMatrix34-2" /><feComposite
     id="feComposite34-8"
     in2="fbSourceGraphic"
     operator="arithmetic"
     k1="0"
     k2="1"
     result="composite1"
     in="fbSourceGraphic"
     k3="0"
     k4="0" /><feColorMatrix
     id="feColorMatrix35-9"
     in="composite1"
     values="1"
     type="saturate"
     result="colormatrix1" /><feFlood
     id="feFlood35-7"
     flood-opacity="1"
     flood-color="rgb(255,255,255)"
     result="flood1" /><feBlend
     id="feBlend35-3"
     in="flood1"
     in2="colormatrix1"
     mode="multiply"
     result="blend1" /><feBlend
     id="feBlend36-6"
     in2="blend1"
     mode="screen"
     result="blend2" /><feColorMatrix
     id="feColorMatrix36-1"
     in="blend2"
     values="1"
     type="saturate"
     result="colormatrix2" /><feComposite
     id="feComposite36-2"
     in="colormatrix2"
     in2="fbSourceGraphic"
     operator="in"
     result="fbSourceGraphic" /><feColorMatrix
     result="fbSourceGraphicAlpha"
     in="fbSourceGraphic"
     values="0 0 0 -1 0 0 0 0 -1 0 0 0 0 -1 0 0 0 0 1 0"
     id="feColorMatrix43-9" /><feComposite
     id="feComposite43-3"
     in2="fbSourceGraphic"
     operator="arithmetic"
     k1="0"
     k2="1"
     result="composite1"
     in="fbSourceGraphic"
     k3="0"
     k4="0" /><feColorMatrix
     id="feColorMatrix44-1"
     in="composite1"
     values="1"
     type="saturate"
     result="colormatrix1" /><feFlood
     id="feFlood44-9"
     flood-opacity="1"
     flood-color="rgb(210,118,118)"
     result="flood1" /><feBlend
     id="feBlend44-4"
     in="flood1"
     in2="colormatrix1"
     mode="multiply"
     result="blend1" /><feBlend
     id="feBlend45-7"
     in2="blend1"
     mode="screen"
     result="blend2" /><feColorMatrix
     id="feColorMatrix45-8"
     in="blend2"
     values="1"
     type="saturate"
     result="colormatrix2" /><feComposite
     id="feComposite45-4"
     in="colormatrix2"
     in2="fbSourceGraphic"
     operator="in"
     result="composite2" /></filter><filter
   style="color-interpolation-filters:sRGB"
   inkscape:label="Colorize"
   id="filter11"
   x="0"
   y="0"
   width="1"
   height="1"><feColorMatrix
     values="-0.826841 0.72 0.072 5 0 -0.826841 0.72 0.072 5 0 -0.826841 0.72 0.072 5 0 0 0 0 1 0 "
     id="feColorMatrix1-5"
     result="fbSourceGraphic" /><feColorMatrix
     result="fbSourceGraphicAlpha"
     in="fbSourceGraphic"
     values="0 0 0 -1 0 0 0 0 -1 0 0 0 0 -1 0 0 0 0 1 0"
     id="feColorMatrix2-0" /><feColorMatrix
     id="feColorMatrix3-3"
     values="-0.826841 0.72 0.072 5 0 -0.826841 0.72 0.072 5 0 -0.826841 0.72 0.072 5 0 0 0 0 1 0 "
     in="fbSourceGraphic"
     result="fbSourceGraphic" /><feColorMatrix
     result="fbSourceGraphicAlpha"
     in="fbSourceGraphic"
     values="0 0 0 -1 0 0 0 0 -1 0 0 0 0 -1 0 0 0 0 1 0"
     id="feColorMatrix4-6" /><feColorMatrix
     id="feColorMatrix5"
     values="-1 0 0 0 1 0 -1 0 0 1 0 0 -1 0 1 0.21 0.72 0.07 0.180564 0 "
     result="fbSourceGraphic"
     in="fbSourceGraphic" /><feColorMatrix
     result="fbSourceGraphicAlpha"
     in="fbSourceGraphic"
     values="0 0 0 -1 0 0 0 0 -1 0 0 0 0 -1 0 0 0 0 1 0"
     id="feColorMatrix6" /><feComposite
     id="feComposite6"
     in2="fbSourceGraphic"
     operator="arithmetic"
     k1="0"
     k2="1"
     result="composite1"
     in="fbSourceGraphic"
     k3="0"
     k4="0" /><feColorMatrix
     id="feColorMatrix7"
     in="composite1"
     values="1"
     type="saturate"
     result="colormatrix1" /><feFlood
     id="feFlood7"
     flood-opacity="1"
     flood-color="rgb(255,255,255)"
     result="flood1" /><feBlend
     id="feBlend7"
     in="flood1"
     in2="colormatrix1"
     mode="multiply"
     result="blend1" /><feBlend
     id="feBlend8"
     in2="blend1"
     mode="screen"
     result="blend2" /><feColorMatrix
     id="feColorMatrix8"
     in="blend2"
     values="1"
     type="saturate"
     result="colormatrix2" /><feComposite
     id="feComposite8"
     in="colormatrix2"
     in2="fbSourceGraphic"
     operator="in"
     result="fbSourceGraphic" /><feColorMatrix
     result="fbSourceGraphicAlpha"
     in="fbSourceGraphic"
     values="0 0 0 -1 0 0 0 0 -1 0 0 0 0 -1 0 0 0 0 1 0"
     id="feColorMatrix9" /><feComposite
     id="feComposite9"
     in2="fbSourceGraphic"
     operator="arithmetic"
     k1="0"
     k2="1"
     result="composite1"
     in="fbSourceGraphic"
     k3="0"
     k4="0" /><feColorMatrix
     id="feColorMatrix10"
     in="composite1"
     values="1"
     type="saturate"
     result="colormatrix1" /><feFlood
     id="feFlood10"
     flood-opacity="1"
     flood-color="rgb(210,118,118)"
     result="flood1" /><feBlend
     id="feBlend10"
     in="flood1"
     in2="colormatrix1"
     mode="multiply"
     result="blend1" /><feBlend
     id="feBlend11"
     in2="blend1"
     mode="screen"
     result="blend2" /><feColorMatrix
     id="feColorMatrix11-1"
     in="blend2"
     values="1"
     type="saturate"
     result="colormatrix2" /><feComposite
     id="feComposite11"
     in="colormatrix2"
     in2="fbSourceGraphic"
     operator="in"
     result="composite2" /></filter></defs><g
     inkscape:label="Layer 1"
     inkscape:groupmode="layer"
     id="layer1"
     transform="translate(278.93784,-4.7821761)"><g
       id="g100"
       transform="matrix(0.5625,0,0,0.5625,-121.0446,3.4174031)"><g
         id="g86"><path
           class="st0"
           d="M 35.2,10.6 C 34.6,10.3 34.1,9.7 33.8,9.1 33.5,8.4 33.3,7.6 33.3,6.7 c 0,-1 0.2,-1.8 0.5,-2.4 0.3,-0.7 0.8,-1.2 1.4,-1.5 0.6,-0.3 1.3,-0.5 2.2,-0.5 0.9,0 1.6,0.2 2.2,0.5 0.6,0.2 1,0.7 1.4,1.4 0.3,0.7 0.5,1.5 0.5,2.4 0,1 -0.2,1.8 -0.5,2.4 -0.3,0.7 -0.8,1.2 -1.4,1.5 C 39,10.8 38.3,11 37.4,11 36.5,11.1 35.8,10.9 35.2,10.6 Z M 38.9,8.7 C 39.2,8.2 39.4,7.5 39.4,6.6 39.4,5.7 39.3,5 38.9,4.5 38.6,4 38,3.8 37.4,3.8 36.7,3.8 36.2,4 35.9,4.5 35.6,5 35.4,5.7 35.4,6.6 c 0,0.9 0.2,1.6 0.5,2.1 0.3,0.5 0.9,0.7 1.5,0.7 0.7,0.1 1.2,-0.2 1.5,-0.7 z M 35.5,1.2 V 0.4 C 35.5,0.3 35.6,0.2 35.7,0.1 35.8,0 36,0 36.3,0 36.6,0 36.7,0 36.9,0.1 37,0.2 37,0.3 37,0.4 V 1.1 C 37,1.4 36.7,1.5 36.2,1.5 35.8,1.6 35.5,1.4 35.5,1.2 Z m 2.3,0 V 0.4 C 37.8,0.3 37.9,0.2 38,0.1 38.1,0 38.3,0 38.5,0 c 0.2,0 0.4,0 0.6,0.1 0.1,0.1 0.2,0.2 0.2,0.3 v 0.7 c 0,0.3 -0.2,0.4 -0.7,0.4 C 38,1.6 37.8,1.4 37.8,1.2 Z"
           id="use60"
           transform="matrix(0.95675223,0,0,0.95675222,-312.45,2.5297302)"
           style="display:inline;opacity:1;mix-blend-mode:normal;fill:#75ac70;fill-opacity:1;stroke-width:1.00026;stroke-dasharray:none;filter:url(#filter50);image-rendering:optimizeQuality"
           inkscape:label="use60" /><path
           style="opacity:1;fill:#ffffff;fill-opacity:1;stroke:#ffffff;stroke-width:0.42993;stroke-miterlimit:4;stroke-dasharray:none;stroke-opacity:1;paint-order:normal"
           d="m -35.124121,31.307597 c -1.717935,-0.247559 -4.527956,-1.330085 -5.646009,-2.175053 -1.777639,-1.343451 -3.410134,-3.533216 -4.217383,-5.657032 -0.9512,-2.502539 -1.386226,-4.968823 -1.3841,-7.846844 0.0025,-3.349747 0.517397,-5.8652069 1.741637,-8.508121 1.43036,-3.0878907 3.323045,-4.8498355 6.605941,-6.14962597 2.053746,-0.81313502 4.705799,-1.22110736 7.238427,-1.113506 2.838062,0.12057811 4.851136,0.63249308 7.489559,1.90455857 1.545136,0.7449583 2.265897,1.3231171 3.248094,2.6054619 1.421228,1.8555403 2.312349,3.9229691 2.933457,6.8057195 0.327309,1.519139 0.454067,5.2454 0.240831,7.079593 -0.288167,2.478725 -1.209323,5.28307 -2.385873,7.263497 -0.596778,1.004526 -1.922575,2.43191 -2.907957,3.130774 -1.446735,1.02607 -3.54682,1.888992 -5.630772,2.313674 -1.923409,0.391966 -5.754287,0.573371 -7.325852,0.346904 z m 6.71875,-6.250968 c 2.031073,-1.003154 3.357972,-3.464936 3.863386,-7.167694 0.299333,-2.192975 0.185745,-5.285086 -0.261986,-7.131802 -0.41578,-1.7149373 -1.551454,-3.5442226 -2.684243,-4.3236414 -1.451512,-0.9987173 -3.623647,-1.3638479 -5.80178,-0.9752652 -2.355239,0.4201788 -3.726591,1.7767119 -4.670691,4.6202206 -0.575712,1.733968 -0.720407,2.801368 -0.720407,5.314357 0,2.516581 0.145672,3.588331 0.722328,5.314358 0.636728,1.905834 1.369282,3.031718 2.410412,3.704632 1.262408,0.815934 2.449802,1.076576 4.765714,1.046112 1.548432,-0.02037 1.635964,-0.03514 2.377267,-0.401277 z"
           id="path84"
           transform="matrix(0.26458333,0,0,0.26458333,-268.31714,4.7707784)" /><path
           style="opacity:1;fill:#ffffff;fill-opacity:1;stroke:#ffffff;stroke-width:0.42993;stroke-miterlimit:4;stroke-dasharray:none;stroke-opacity:1;paint-order:normal"
           d="m -37.642084,-3.1383327 c -0.756137,-0.3506204 -0.869642,-0.6759437 -0.869642,-2.4925335 v -1.5418859 l 0.391759,-0.5144096 c 0.543547,-0.7137173 0.986897,-0.8402319 2.75812,-0.787059 2.275079,0.068299 2.43483,0.2442743 2.436035,2.68345 0.0012,2.3582754 -0.297016,2.6294585 -3.089784,2.8100222 -0.967533,0.062555 -1.200399,0.039993 -1.626488,-0.1575842 z"
           id="path85"
           transform="matrix(0.26458333,0,0,0.26458333,-268.31714,4.7707784)" /><path
           style="opacity:1;fill:#ffffff;fill-opacity:1;stroke:#ffffff;stroke-width:0.42993;stroke-miterlimit:4;stroke-dasharray:none;stroke-opacity:1;paint-order:normal"
           d="m -29.187503,-3.0322681 c -0.199726,-0.061821 -0.493913,-0.251441 -0.653748,-0.4213778 -0.275569,-0.2929852 -0.292576,-0.3961838 -0.328614,-1.9940048 l -0.038,-1.6850286 0.372249,-0.5138747 c 0.492889,-0.6804137 0.943154,-0.8521757 2.233932,-0.8521757 1.41054,0 2.178533,0.2345568 2.607389,0.796337 0.300666,0.3938566 0.33384,0.5380189 0.371415,1.6140366 0.09417,2.6967177 -0.163024,2.9726758 -2.893981,3.1050926 -0.719123,0.034868 -1.47091,0.012816 -1.670637,-0.049005 z"
           id="path86"
           transform="matrix(0.26458333,0,0,0.26458333,-268.31714,4.7707784)" /></g><path
         style="opacity:1;fill:#ffffff;fill-opacity:1;stroke:#ffffff;stroke-width:0.42993;stroke-miterlimit:4;stroke-dasharray:none;stroke-opacity:1;paint-order:normal"
         d="M 10.400543,39.944742 C 7.0983155,39.084081 5.0496169,37.782381 3.264696,35.410778 0.93559675,32.31613 -0.12114221,28.040884 0.13830129,22.762332 0.27311189,20.01952 0.81816414,17.905115 2.0227008,15.452236 3.2769831,12.898056 4.8371313,11.320167 7.3100962,10.104714 11.447386,8.0712532 16.977823,7.8447639 21.452718,9.5255283 c 1.41499,0.5314687 3.351904,1.5773547 4.002274,2.1611307 2.249007,2.018721 4.008858,6.004397 4.390536,9.943596 0.217665,2.24646 0.08065,5.523356 -0.298325,7.134676 -1.364256,5.800577 -3.820603,8.791628 -8.571013,10.436775 -2.173187,0.752611 -4.258806,1.037351 -7.527509,1.027694 -1.679747,-0.005 -2.139842,-0.04793 -3.048138,-0.284658 z m 7.783175,-6.374169 c 2.722987,-1.451337 4.108664,-5.58363 3.791297,-11.306205 -0.112524,-2.028961 -0.354136,-3.101059 -1.0043,-4.456336 -1.199391,-2.500156 -3.030303,-3.599734 -5.993933,-3.599734 -3.312038,0 -5.0764764,1.308928 -6.1694842,4.57676 -0.6266821,1.873629 -0.7577049,2.989732 -0.6901639,5.879088 0.065388,2.797253 0.2028123,3.607631 0.9189365,5.418885 1.0093266,2.552835 2.3645176,3.564123 5.2275316,3.900958 0.228812,0.02692 1.045546,0.02961 1.814964,0.006 1.301274,-0.03998 1.448245,-0.06926 2.105152,-0.419383 z"
         id="path87"
         transform="matrix(0.26458333,0,0,0.26458333,-280.64317,2.46528)" /><path
         style="opacity:1;fill:#000000;fill-opacity:1;stroke:#000000;stroke-width:0.42993;stroke-miterlimit:4;stroke-dasharray:none;stroke-opacity:1;paint-order:normal"
         d="M 10.757133,40.179594 C 4.6533215,38.847757 1.0024053,34.412783 0.11458792,27.251494 -0.0989099,25.529384 0.02658933,21.234939 0.33088113,19.85018 0.98286716,16.883148 2.32735,14.110097 3.9786619,12.326483 5.6155099,10.558492 8.5130467,9.1400431 11.70804,8.542674 c 1.784434,-0.3336363 5.122995,-0.3083645 6.925318,0.052422 2.276596,0.4557262 4.808813,1.498132 6.47012,2.663473 1.920356,1.347053 3.830015,4.876592 4.638993,8.574047 0.236061,1.078923 0.263684,1.538562 0.261784,4.356076 -0.0019,2.785978 -0.03199,3.287201 -0.260693,4.338513 -0.493493,2.268548 -1.374045,4.546146 -2.336309,6.042992 -0.587684,0.914169 -1.969723,2.359105 -2.861452,2.991677 -1.952736,1.385227 -4.642637,2.328063 -7.61259,2.668287 -1.49834,0.171644 -5.300355,0.140514 -6.176078,-0.05057 z m 7.40869,-6.773308 c 1.667983,-0.923956 2.894194,-3.068299 3.401759,-5.948851 0.410206,-2.328015 0.351528,-6.081804 -0.124488,-7.963845 -0.09921,-0.392249 -0.402158,-1.165156 -0.673217,-1.717571 -0.854586,-1.741632 -2.13188,-2.79981 -3.891281,-3.223746 -0.792278,-0.190903 -3.049528,-0.192332 -3.849037,-0.0024 -1.97102,0.468148 -3.2579367,1.846504 -4.116384,4.408869 -0.4999065,1.492163 -0.6087241,2.41384 -0.6034439,5.111124 0.00579,2.9572 0.1644195,4.119325 0.7797892,5.71272 0.9716847,2.516012 1.9480127,3.371754 4.5203337,3.962032 0.13075,0.03 1.066798,0.04511 2.080109,0.03358 1.799938,-0.02049 1.856976,-0.02905 2.47586,-0.371876 z"
         id="path98"
         transform="matrix(0.26458333,0,0,0.26458333,-280.64317,2.46528)" /><path
         style="opacity:1;fill:#000000;fill-opacity:1;stroke:#000000;stroke-width:0.42993;stroke-miterlimit:4;stroke-dasharray:none;stroke-opacity:1;paint-order:normal"
         d="M 8.756942,5.6331809 C 8.0827745,5.2774791 7.9638446,4.8792419 7.9638446,2.9774887 V 1.3711029 L 8.4690139,0.84575218 C 9.1340075,0.15419211 9.667409,0.01225386 11.292019,0.09455002 13.554249,0.20914545 13.707566,0.36620171 13.768697,2.631632 13.832773,5.0061857 13.530818,5.4864598 11.795088,5.7707575 10.6079,5.9652086 9.271546,5.9046944 8.756942,5.6331809 Z"
         id="path99"
         transform="matrix(0.26458333,0,0,0.26458333,-280.64317,2.46528)" /><path
         style="opacity:1;fill:#000000;fill-opacity:1;stroke:#000000;stroke-width:0.42993;stroke-miterlimit:4;stroke-dasharray:none;stroke-opacity:1;paint-order:normal"
         d="M 16.997459,5.6244047 C 16.768648,5.4679692 16.517003,5.2060313 16.43825,5.0423204 16.230825,4.6111295 16.211567,1.5442817 16.414593,1.2747826 c 0.787664,-1.04555894 1.40107,-1.28680178 3.015793,-1.18606278 1.173866,0.07323497 1.934843,0.37871087 2.33256,0.93635098 0.268848,0.3769519 0.286206,0.4998658 0.286206,2.0266659 0,1.454613 -0.02578,1.6606631 -0.245397,1.9612453 -0.452324,0.6190829 -0.981303,0.7795854 -2.77044,0.8406051 -1.558718,0.053161 -1.63553,0.044514 -2.035856,-0.2291824 z"
         id="path100"
         transform="matrix(0.26458333,0,0,0.26458333,-280.64317,2.46528)" /></g></g><style
     id="style1">&#10;		tspan { white-space:pre }&#10;		.shp0 { fill: #d3a964 } &#10;		.shp1 { fill: #d2a663 } &#10;	</style><style
     id="style1-9">&#10;		tspan { white-space:pre }&#10;		.shp0 { fill: #d3a964 } &#10;		.shp1 { fill: #d2a663 } &#10;	</style><style
     id="style1-6">&#10;		tspan { white-space:pre }&#10;		.shp0 { fill: #d3a964 } &#10;		.shp1 { fill: #d2a663 } &#10;	</style><style
     type="text/css"
     id="style1-1">&#10;	.st0{fill:#C7AC76;}&#10;	.st1{display:none;}&#10;</style></svg>
