<?xml version="1.0" encoding="UTF-8" standalone="no"?>
<!-- Created with Inkscape (http://www.inkscape.org/) -->

<svg
   width="250.55357"
   height="18"
   viewBox="0 0 66.2923 4.7625003"
   version="1.1"
   id="svg1"
   xml:space="preserve"
   inkscape:version="1.3 (1:1.3+202307231459+0e150ed6c4)"
   sodipodi:docname="logo-light.svg"
   xmlns:inkscape="http://www.inkscape.org/namespaces/inkscape"
   xmlns:sodipodi="http://sodipodi.sourceforge.net/DTD/sodipodi-0.dtd"
   xmlns="http://www.w3.org/2000/svg"
   xmlns:svg="http://www.w3.org/2000/svg"><sodipodi:namedview
     id="namedview1"
     pagecolor="#505050"
     bordercolor="#eeeeee"
     borderopacity="1"
     inkscape:showpageshadow="0"
     inkscape:pageopacity="0"
     inkscape:pagecheckerboard="0"
     inkscape:deskcolor="#d1d1d1"
     inkscape:document-units="mm"
     inkscape:zoom="4.9066843"
     inkscape:cx="127.58106"
     inkscape:cy="24.965943"
     inkscape:window-width="1920"
     inkscape:window-height="1051"
     inkscape:window-x="1920"
     inkscape:window-y="0"
     inkscape:window-maximized="1"
     inkscape:current-layer="layer1" /><defs
     id="defs1"><filter
   style="color-interpolation-filters:sRGB"
   inkscape:label="Greyscale"
   id="filter1"
   x="0"
   y="0"
   width="1"
   height="1"><feColorMatrix
     values="0.21 0.72 0.072 0 0 0.21 0.72 0.072 0 0 0.21 0.72 0.072 0 0 0 0 0 1 0 "
     id="feColorMatrix1"
     result="fbSourceGraphic" /><feColorMatrix
     result="fbSourceGraphicAlpha"
     in="fbSourceGraphic"
     values="0 0 0 -1 0 0 0 0 -1 0 0 0 0 -1 0 0 0 0 1 0"
     id="feColorMatrix2" /><feColorMatrix
     id="feColorMatrix3"
     values="0.21 0.72 0.072 0 0 0.21 0.72 0.072 0 0 0.21 0.72 0.072 0 0 0 0 0 1 0 "
     in="fbSourceGraphic" /></filter><style
   id="style1">.cls-1{fill:#fff;}.cls-2{fill:#f68d2e;}</style><filter
   style="color-interpolation-filters:sRGB"
   inkscape:label="Greyscale"
   id="filter32"
   x="0"
   y="0"
   width="1"
   height="1"><feColorMatrix
     values="-0.826841 0.72 0.072 5 0 -0.826841 0.72 0.072 5 0 -0.826841 0.72 0.072 5 0 0 0 0 1 0 "
     id="feColorMatrix32" /></filter><filter
   style="color-interpolation-filters:sRGB"
   inkscape:label="Greyscale"
   id="filter33"
   x="0"
   y="0"
   width="1"
   height="1"><feColorMatrix
     values="-0.826841 0.72 0.072 5 0 -0.826841 0.72 0.072 5 0 -0.826841 0.72 0.072 5 0 0 0 0 1 0 "
     id="feColorMatrix33" /></filter><style
   id="style1-2">.cls-2{fill:#fff;}</style><filter
   style="color-interpolation-filters:sRGB"
   inkscape:label="Greyscale"
   id="filter1-0"
   x="0"
   y="0"
   width="1"
   height="1"><feColorMatrix
     values="0.21 0.72 0.072 0 0 0.21 0.72 0.072 0 0 0.21 0.72 0.072 0 0 0 0 0 1 0 "
     id="feColorMatrix1-6"
     result="fbSourceGraphic" /><feColorMatrix
     result="fbSourceGraphicAlpha"
     in="fbSourceGraphic"
     values="0 0 0 -1 0 0 0 0 -1 0 0 0 0 -1 0 0 0 0 1 0"
     id="feColorMatrix2-2" /><feColorMatrix
     id="feColorMatrix3-6"
     values="0.21 0.72 0.072 0 0 0.21 0.72 0.072 0 0 0.21 0.72 0.072 0 0 0 0 0 1 0 "
     in="fbSourceGraphic" /></filter><clipPath
   clipPathUnits="userSpaceOnUse"
   id="cp1"><path
     d="M -575,-1324 H 5822 V 2306 H -575 Z"
     id="path1-1" /></clipPath><filter
   style="color-interpolation-filters:sRGB"
   inkscape:label="Invert"
   id="filter4"
   x="0"
   y="0"
   width="1"
   height="1"><feColorMatrix
     values="0.21 0.72 0.072 5.01847 0 0.21 0.72 0.072 5.01847 0 0.21 0.72 0.072 5.01847 0 0 0 0 1 0 "
     id="feColorMatrix4"
     result="fbSourceGraphic" /><feColorMatrix
     result="fbSourceGraphicAlpha"
     in="fbSourceGraphic"
     values="0 0 0 -1 0 0 0 0 -1 0 0 0 0 -1 0 0 0 0 1 0"
     id="feColorMatrix14" /><feColorMatrix
     id="feColorMatrix15"
     values="-1 0 0 0 1 0 -1 0 0 1 0 0 -1 0 1 0.21 0.72 0.07 0.180564 0 "
     result="color2"
     in="fbSourceGraphic" /></filter><filter
   style="color-interpolation-filters:sRGB"
   inkscape:label="Greyscale"
   id="filter1-3"
   x="0"
   y="0"
   width="1"
   height="1"><feColorMatrix
     values="0.21 0.72 0.072 0 0 0.21 0.72 0.072 0 0 0.21 0.72 0.072 0 0 0 0 0 1 0 "
     id="feColorMatrix1-7"
     result="fbSourceGraphic" /><feColorMatrix
     result="fbSourceGraphicAlpha"
     in="fbSourceGraphic"
     values="0 0 0 -1 0 0 0 0 -1 0 0 0 0 -1 0 0 0 0 1 0"
     id="feColorMatrix2-5" /><feColorMatrix
     id="feColorMatrix3-9"
     values="0.21 0.72 0.072 0 0 0.21 0.72 0.072 0 0 0.21 0.72 0.072 0 0 0 0 0 1 0 "
     in="fbSourceGraphic" /></filter><clipPath
   clipPathUnits="userSpaceOnUse"
   id="cp1-2"><path
     d="M -575,-1324 H 5822 V 2306 H -575 Z"
     id="path1-2" /></clipPath><filter
   style="color-interpolation-filters:sRGB"
   inkscape:label="Invert"
   id="filter4-8"
   x="0"
   y="0"
   width="1"
   height="1"><feColorMatrix
     values="0.21 0.72 0.072 5.01847 0 0.21 0.72 0.072 5.01847 0 0.21 0.72 0.072 5.01847 0 0 0 0 1 0 "
     id="feColorMatrix4-9"
     result="fbSourceGraphic" /><feColorMatrix
     result="fbSourceGraphicAlpha"
     in="fbSourceGraphic"
     values="0 0 0 -1 0 0 0 0 -1 0 0 0 0 -1 0 0 0 0 1 0"
     id="feColorMatrix11" /><feColorMatrix
     id="feColorMatrix12"
     values="-1 0 0 0 1 0 -1 0 0 1 0 0 -1 0 1 0.21 0.72 0.07 0.180564 0 "
     result="color2"
     in="fbSourceGraphic" /></filter><filter
   style="color-interpolation-filters:sRGB"
   inkscape:label="Greyscale"
   id="filter50"
   x="0"
   y="0"
   width="1"
   height="1"><feColorMatrix
     values="-0.826841 0.72 0.072 5 0 -0.826841 0.72 0.072 5 0 -0.826841 0.72 0.072 5 0 0 0 0 1 0 "
     id="feColorMatrix50"
     result="fbSourceGraphic" /><feColorMatrix
     result="fbSourceGraphicAlpha"
     in="fbSourceGraphic"
     values="0 0 0 -1 0 0 0 0 -1 0 0 0 0 -1 0 0 0 0 1 0"
     id="feColorMatrix51" /><feColorMatrix
     id="feColorMatrix52"
     values="-0.826841 0.72 0.072 5 0 -0.826841 0.72 0.072 5 0 -0.826841 0.72 0.072 5 0 0 0 0 1 0 "
     in="fbSourceGraphic" /></filter>&#10;&#10;	&#10;&#10;</defs><g
     inkscape:label="Layer 1"
     inkscape:groupmode="layer"
     id="layer1"
     transform="translate(-50.03537,-59.036855)"><g
       id="g14"
       transform="matrix(0.42522321,0,0,0.42522321,50.03537,59.036855)"
       style="filter:url(#filter50)">&#10;		<path
   class="st0"
   d="M 0.1,10.9 C 0,10.9 0,10.8 0,10.6 v -8 C 0,2.5 0,2.4 0.1,2.3 0.2,2.2 0.3,2.2 0.4,2.2 h 2.5 c 1.2,0 2.1,0.3 2.8,1 0.7,0.8 1.1,1.9 1.1,3.4 0,1.5 -0.4,2.7 -1.1,3.3 -0.7,0.6 -1.6,1 -2.8,1 H 0.4 C 0.2,11 0.2,11 0.1,10.9 Z m 2.7,-0.8 c 0.8,0 1.5,-0.3 2,-0.8 C 5.3,8.8 5.6,7.9 5.6,6.7 5.6,5.9 5.5,5.2 5.2,4.7 5,4.2 4.7,3.8 4.3,3.5 3.9,3.3 3.4,3.2 2.8,3.2 H 1.1 v 6.9 z"
   id="path1" />&#10;		<path
   class="st0"
   d="m 12.4,10.9 c -0.1,-0.1 -0.1,-0.2 -0.1,-0.3 v -8 c 0,-0.1 0,-0.2 0.1,-0.3 0.1,-0.1 0.2,-0.1 0.3,-0.1 h 4.4 c 0.1,0 0.2,0 0.2,0.1 0,0.1 0.1,0.2 0.1,0.3 v 0.2 c 0,0.1 0,0.2 -0.1,0.3 0,0.1 -0.1,0.1 -0.2,0.1 h -3.6 v 2.9 h 3.3 c 0.1,0 0.2,0 0.2,0.1 0,0.1 0.1,0.2 0.1,0.3 v 0.2 c 0,0.1 0,0.2 -0.1,0.3 -0.1,0 -0.2,0 -0.3,0 h -3.3 v 3.1 h 3.7 c 0.1,0 0.2,0 0.2,0.1 0,0.1 0.1,0.2 0.1,0.3 v 0.2 c 0,0.1 0,0.2 -0.1,0.3 0,0.1 -0.1,0.1 -0.2,0.1 H 12.7 C 12.6,11 12.5,11 12.4,10.9 Z"
   id="path2" />&#10;		<path
   class="st0"
   d="M 22.8,10.8 V 2.6 c 0,-0.1 0,-0.2 0.1,-0.3 0.1,-0.1 0.2,-0.1 0.3,-0.1 h 2.1 c 1,0 1.8,0.2 2.3,0.5 0.5,0.3 0.8,0.9 0.8,1.7 0,0.5 -0.1,1 -0.4,1.3 -0.3,0.4 -0.6,0.6 -1.1,0.8 v 0 c 0.2,0.1 0.4,0.2 0.6,0.5 0.2,0.2 0.3,0.6 0.5,1.1 l 1,2.5 c 0,0.1 0,0.1 0,0.2 0,0.1 -0.2,0.2 -0.5,0.2 h -0.1 c -0.1,0 -0.2,0 -0.3,-0.1 -0.1,0 -0.1,-0.1 -0.2,-0.1 l -1,-2.5 C 26.8,8 26.6,7.7 26.5,7.6 26.3,7.4 26.1,7.3 25.9,7.2 25.7,7.1 25.4,7.1 25,7.1 h -1.1 v 3.6 c 0,0.2 -0.2,0.3 -0.5,0.3 h -0.1 c -0.4,0 -0.5,-0.1 -0.5,-0.2 z M 25.5,6.2 C 25.8,6.2 26.1,6.1 26.3,6 26.5,5.9 26.7,5.7 26.9,5.4 27,5.2 27.1,4.9 27.1,4.6 27.1,4.1 26.9,3.7 26.6,3.5 26.3,3.3 25.9,3.1 25.4,3.1 h -1.6 v 3 h 1.7 z"
   id="path3" />&#10;		<path
   class="st0"
   d="M 35.2,10.6 C 34.6,10.3 34.1,9.7 33.8,9.1 33.5,8.4 33.3,7.6 33.3,6.7 c 0,-1 0.2,-1.8 0.5,-2.4 0.3,-0.7 0.8,-1.2 1.4,-1.5 0.6,-0.3 1.3,-0.5 2.2,-0.5 0.9,0 1.6,0.2 2.2,0.5 0.6,0.2 1,0.7 1.4,1.4 0.3,0.7 0.5,1.5 0.5,2.4 0,1 -0.2,1.8 -0.5,2.4 -0.3,0.7 -0.8,1.2 -1.4,1.5 C 39,10.8 38.3,11 37.4,11 36.5,11.1 35.8,10.9 35.2,10.6 Z M 38.9,8.7 C 39.2,8.2 39.4,7.5 39.4,6.6 39.4,5.7 39.3,5 38.9,4.5 38.6,4 38,3.8 37.4,3.8 36.7,3.8 36.2,4 35.9,4.5 35.6,5 35.4,5.7 35.4,6.6 c 0,0.9 0.2,1.6 0.5,2.1 0.3,0.5 0.9,0.7 1.5,0.7 0.7,0.1 1.2,-0.2 1.5,-0.7 z M 35.5,1.2 V 0.4 C 35.5,0.3 35.6,0.2 35.7,0.1 35.8,0 36,0 36.3,0 36.6,0 36.7,0 36.9,0.1 37,0.2 37,0.3 37,0.4 V 1.1 C 37,1.4 36.7,1.5 36.2,1.5 35.8,1.6 35.5,1.4 35.5,1.2 Z m 2.3,0 V 0.4 C 37.8,0.3 37.9,0.2 38,0.1 38.1,0 38.3,0 38.5,0 c 0.2,0 0.4,0 0.6,0.1 0.1,0.1 0.2,0.2 0.2,0.3 v 0.7 c 0,0.3 -0.2,0.4 -0.7,0.4 C 38,1.6 37.8,1.4 37.8,1.2 Z"
   id="path4" />&#10;		<path
   class="st0"
   d="m 47.3,10.9 c -0.4,-0.1 -0.8,-0.3 -1,-0.4 -0.2,-0.2 -0.4,-0.3 -0.4,-0.5 0,-0.1 0,-0.3 0.1,-0.5 0.1,-0.2 0.2,-0.3 0.3,-0.5 0.1,-0.1 0.2,-0.2 0.3,-0.2 0.1,0 0.2,0 0.3,0.1 0.3,0.1 0.5,0.2 0.7,0.3 0.2,0.1 0.5,0.1 0.8,0.1 0.3,0 0.6,-0.1 0.8,-0.2 C 49.4,9 49.5,8.7 49.5,8.4 49.5,8.2 49.4,8 49.3,7.9 49.4,8 49.2,7.9 49,7.8 48.8,7.7 48.6,7.6 48.3,7.5 L 47.7,7.3 C 47.4,7.1 47.1,7 46.8,6.8 46.6,6.6 46.4,6.3 46.2,6 46.1,5.5 46,5.2 46,4.7 46,4.1 46.1,3.6 46.4,3.3 46.7,2.9 47,2.6 47.5,2.5 48,2.4 48.4,2.2 49,2.2 c 0.4,0 0.8,0 1.1,0.1 0.3,0.1 0.6,0.2 0.8,0.3 0.2,0.1 0.3,0.3 0.3,0.4 0,0.1 0,0.3 -0.1,0.4 C 51,3.6 50.9,3.7 50.8,3.9 50.7,4 50.6,4.1 50.5,4.1 50.5,4.1 50.4,4.1 50.3,4 50.2,4 50,3.9 49.8,3.9 49.6,3.9 49.4,3.8 49.2,3.8 48.8,3.8 48.5,3.9 48.3,4 48.1,4.1 48,4.3 48,4.5 c 0,0.2 0.1,0.4 0.2,0.5 0.1,0.1 0.3,0.3 0.4,0.4 0.1,0.1 0.4,0.2 0.7,0.3 0.5,0.2 0.9,0.4 1.2,0.6 0.3,0.2 0.6,0.4 0.8,0.8 0.2,0.3 0.3,0.8 0.3,1.3 0,0.6 -0.1,1.2 -0.4,1.6 -0.3,0.4 -0.6,0.7 -1,0.9 -0.4,0.2 -0.9,0.3 -1.4,0.3 -0.6,-0.1 -1.1,-0.1 -1.5,-0.3 z"
   id="path5" />&#10;		<path
   class="st0"
   d="M 57,10 C 56.3,9.3 56,8.1 56,6.6 c 0,-3 1.4,-4.5 4.2,-4.5 0.4,0 0.8,0 1.2,0.1 0.4,0.1 0.7,0.2 1,0.3 0.3,0.1 0.4,0.3 0.4,0.4 0,0.1 0,0.3 -0.1,0.5 -0.1,0.2 -0.2,0.4 -0.3,0.6 -0.1,0.1 -0.2,0.2 -0.3,0.2 0,0 -0.1,0 -0.2,-0.1 C 61.6,4 61.4,4 61.1,3.9 60.9,3.8 60.5,3.8 60.2,3.8 59.5,3.8 58.9,4 58.6,4.5 58.2,5 58,5.7 58,6.6 c 0,0.9 0.2,1.7 0.5,2.1 0.4,0.5 0.9,0.7 1.6,0.7 0.4,0 0.7,0 1,-0.1 0.3,-0.1 0.5,-0.2 0.8,-0.3 0,0 0.1,0 0.1,-0.1 0.1,0 0.1,0 0.2,0 0.1,0 0.2,0.1 0.4,0.2 0.1,0.1 0.2,0.3 0.3,0.5 0.1,0.2 0.1,0.3 0.1,0.4 0,0.2 -0.2,0.4 -0.5,0.6 -0.3,0.2 -0.7,0.3 -1.1,0.4 -0.4,0.1 -0.8,0.1 -1.2,0.1 -1.5,0 -2.5,-0.3 -3.2,-1.1 z"
   id="path6" />&#10;		<path
   class="st0"
   d="m 67.9,10.6 v -8 c 0,-0.1 0.1,-0.2 0.2,-0.3 0.1,-0.1 0.3,-0.1 0.6,-0.1 h 0.4 c 0.3,0 0.4,0 0.6,0.1 0.1,0.1 0.2,0.2 0.2,0.3 v 3.1 h 3.4 V 2.6 c 0,-0.1 0.1,-0.2 0.2,-0.3 0.1,-0.1 0.3,-0.1 0.6,-0.1 h 0.4 c 0.5,0 0.8,0.1 0.8,0.4 v 8 C 75.3,10.9 75,11 74.5,11 H 74 c -0.5,0 -0.8,-0.1 -0.8,-0.4 V 7.4 h -3.4 v 3.3 c 0,0.3 -0.2,0.4 -0.7,0.4 H 68.7 C 68.1,11 67.9,10.9 67.9,10.6 Z"
   id="path7" />&#10;		<path
   class="st0"
   d="M 80.6,10.9 C 80.5,10.8 80.5,10.7 80.5,10.5 V 2.7 c 0,-0.2 0,-0.3 0.1,-0.4 0.1,-0.1 0.2,-0.1 0.4,-0.1 h 2.5 c 1,0 1.8,0.2 2.2,0.6 0.5,0.4 0.7,0.9 0.7,1.6 0,0.4 -0.1,0.8 -0.4,1.1 -0.3,0.3 -0.6,0.6 -1,0.8 v 0 c 0.3,0.1 0.6,0.2 0.9,0.4 0.3,0.2 0.5,0.4 0.6,0.7 0.1,0.3 0.2,0.6 0.2,0.9 0,0.8 -0.3,1.5 -0.8,1.9 -0.5,0.4 -1.3,0.7 -2.3,0.7 H 81 c -0.2,0.1 -0.3,0.1 -0.4,0 z M 83.3,5.7 C 83.7,5.7 84,5.6 84.2,5.4 84.4,5.2 84.5,5 84.5,4.7 84.5,4.1 84.1,3.8 83.4,3.8 h -0.9 v 1.9 z m 0.4,3.7 c 0.4,0 0.6,-0.1 0.8,-0.3 C 84.7,8.9 84.8,8.7 84.8,8.3 84.8,8 84.7,7.7 84.5,7.6 84.3,7.4 83.9,7.4 83.5,7.4 h -1 v 2 z"
   id="path8" />&#10;		<path
   class="st0"
   d="M 91.7,10.9 C 91.6,10.8 91.6,10.7 91.6,10.5 V 2.7 c 0,-0.2 0,-0.3 0.1,-0.4 0.1,-0.1 0.2,-0.1 0.4,-0.1 h 4.6 c 0.1,0 0.2,0 0.3,0.1 0,0.2 0,0.4 0,0.6 v 0.4 c 0,0.2 0,0.4 -0.1,0.5 -0.1,0.1 -0.2,0.1 -0.3,0.1 h -3.2 v 1.8 h 2.8 c 0.1,0 0.2,0 0.3,0.1 0.1,0.1 0.1,0.3 0.1,0.5 v 0.4 c 0,0.2 0,0.4 -0.1,0.5 -0.1,0.1 -0.2,0.1 -0.3,0.1 h -2.8 v 2 h 3.2 c 0.1,0 0.2,0 0.3,0.1 C 97,9.6 97,9.8 97,10 v 0.4 c 0,0.2 0,0.4 -0.1,0.5 0,0.1 -0.1,0.1 -0.3,0.1 H 92 c -0.1,0 -0.3,0 -0.3,-0.1 z"
   id="path9" />&#10;		<path
   class="st0"
   d="M 102,10.6 V 2.7 c 0,-0.2 0,-0.3 0.1,-0.4 0.1,-0.1 0.2,-0.1 0.4,-0.1 h 2.4 c 2.1,0 3.1,0.8 3.1,2.3 0,0.5 -0.1,0.9 -0.4,1.2 -0.3,0.3 -0.6,0.6 -1.1,0.8 v 0 c 0.2,0.1 0.3,0.2 0.5,0.4 0.2,0.2 0.3,0.5 0.4,0.7 l 1.1,2.8 c 0,0.1 0.1,0.2 0.1,0.2 0,0.2 -0.2,0.2 -0.7,0.2 h -0.5 c -0.4,0 -0.7,-0.1 -0.7,-0.3 l -1,-2.4 C 105.6,7.9 105.5,7.8 105.4,7.7 105.3,7.6 105.2,7.5 105,7.5 104.8,7.4 104.6,7.4 104.4,7.4 h -0.5 v 3.1 c 0,0.3 -0.3,0.4 -0.8,0.4 h -0.4 c -0.5,0.1 -0.7,0 -0.7,-0.3 z m 3.1,-4.7 c 0.2,0 0.3,0 0.5,-0.1 0.2,-0.1 0.3,-0.2 0.4,-0.4 0.1,-0.2 0.1,-0.3 0.1,-0.5 0,-0.3 -0.1,-0.5 -0.3,-0.7 C 105.6,4 105.4,3.9 105,3.9 h -1.1 v 2 z"
   id="path10" />&#10;		<path
   class="st0"
   d="m 113.9,10 c -0.7,-0.7 -1,-1.9 -1,-3.4 0,-3 1.4,-4.5 4.2,-4.5 0.4,0 0.8,0 1.2,0.1 0.4,0.1 0.8,0.2 1.1,0.3 0.3,0.1 0.4,0.3 0.4,0.4 0,0.1 0,0.3 -0.1,0.5 -0.1,0.2 -0.2,0.4 -0.3,0.5 -0.1,0.1 -0.2,0.2 -0.3,0.2 0,0 -0.1,0 -0.2,-0.1 -0.2,-0.1 -0.5,-0.2 -0.7,-0.2 -0.3,-0.1 -0.6,-0.1 -1,-0.1 -0.7,0 -1.3,0.2 -1.6,0.7 -0.4,0.5 -0.5,1.2 -0.5,2.1 0,0.9 0.2,1.7 0.5,2.1 0.4,0.5 0.9,0.7 1.6,0.7 0.4,0 0.7,0 1,-0.1 V 7.8 h -1.1 c -0.1,0 -0.2,0 -0.3,-0.1 -0.1,-0.1 -0.1,-0.3 -0.1,-0.5 V 6.8 c 0,-0.2 0,-0.4 0.1,-0.5 0.1,-0.1 0.2,-0.1 0.3,-0.1 h 2.5 c 0.2,0 0.3,0 0.4,0.1 0.1,0.1 0.1,0.2 0.1,0.4 v 3.5 c 0,0.4 -0.3,0.6 -0.9,0.8 -0.6,0.1 -1.3,0.2 -2,0.2 -1.5,-0.1 -2.6,-0.4 -3.3,-1.2 z"
   id="path11" />&#10;		<path
   class="st0"
   d="m 125.5,10.6 v -8 c 0,-0.1 0.1,-0.2 0.2,-0.3 0.1,-0.1 0.3,-0.1 0.6,-0.1 h 0.4 c 0.3,0 0.4,0 0.6,0.1 0.1,0.1 0.2,0.2 0.2,0.3 v 3.1 h 3.4 V 2.6 c 0,-0.1 0.1,-0.2 0.2,-0.3 0.1,-0.1 0.3,-0.1 0.6,-0.1 h 0.4 c 0.5,0 0.8,0.1 0.8,0.4 v 8 c 0,0.3 -0.3,0.4 -0.8,0.4 h -0.4 c -0.5,0 -0.8,-0.1 -0.8,-0.4 V 7.4 h -3.4 v 3.3 c 0,0.3 -0.2,0.4 -0.7,0.4 h -0.4 c -0.7,-0.1 -0.9,-0.2 -0.9,-0.5 z"
   id="path12" />&#10;		<path
   class="st0"
   d="m 139.6,10.6 c -0.6,-0.3 -1.1,-0.9 -1.4,-1.5 -0.3,-0.7 -0.5,-1.5 -0.5,-2.4 0,-1 0.2,-1.8 0.5,-2.4 0.3,-0.7 0.8,-1.2 1.4,-1.5 0.6,-0.3 1.3,-0.5 2.2,-0.5 0.9,0 1.6,0.2 2.2,0.5 0.6,0.3 1.1,0.9 1.4,1.5 0.3,0.7 0.5,1.5 0.5,2.4 0,1 -0.2,1.8 -0.5,2.4 -0.3,0.7 -0.8,1.2 -1.4,1.5 -0.6,0.3 -1.3,0.5 -2.2,0.5 -0.9,0 -1.6,-0.2 -2.2,-0.5 z m 3.7,-1.9 c 0.3,-0.5 0.5,-1.2 0.5,-2.1 0,-0.9 -0.2,-1.6 -0.5,-2.1 -0.3,-0.5 -0.9,-0.7 -1.5,-0.7 -0.7,0 -1.2,0.2 -1.5,0.7 -0.3,0.5 -0.5,1.2 -0.5,2.1 0,0.9 0.2,1.6 0.5,2.1 0.3,0.5 0.9,0.7 1.5,0.7 0.7,0.1 1.2,-0.2 1.5,-0.7 z"
   id="path13" />&#10;		<path
   class="st0"
   d="M 150.8,10.6 V 2.7 c 0,-0.2 0,-0.3 0.1,-0.4 0.1,-0.1 0.2,-0.1 0.4,-0.1 h 4.2 c 0.1,0 0.2,0 0.3,0.1 0.1,0.1 0.1,0.3 0.1,0.5 v 0.4 c 0,0.2 0,0.4 -0.1,0.5 -0.1,0.1 -0.2,0.1 -0.3,0.1 h -2.8 v 1.8 h 2.7 c 0.1,0 0.2,0 0.3,0.1 0.1,0.1 0.1,0.3 0.1,0.5 v 0.4 c 0,0.2 0,0.4 -0.1,0.5 -0.1,0.1 -0.2,0.2 -0.3,0.2 h -2.7 v 3.3 c 0,0.3 -0.3,0.4 -0.8,0.4 h -0.4 c -0.4,0 -0.7,-0.1 -0.7,-0.4 z"
   id="path14" />&#10;	</g></g><style
     id="style1-9">&#10;		tspan { white-space:pre }&#10;		.shp0 { fill: #d3a964 } &#10;		.shp1 { fill: #d2a663 } &#10;	</style><style
     id="style1-6">&#10;		tspan { white-space:pre }&#10;		.shp0 { fill: #d3a964 } &#10;		.shp1 { fill: #d2a663 } &#10;	</style><style
     type="text/css"
     id="style1-1">&#10;	.st0{fill:#C7AC76;}&#10;	.st1{display:none;}&#10;</style></svg>
