<?xml version="1.0" encoding="UTF-8" standalone="no"?>
<!-- Created with Inkscape (http://www.inkscape.org/) -->

<svg
   width="55.35482mm"
   height="7.9374995mm"
   viewBox="0 0 55.35482 7.9374994"
   version="1.1"
   id="svg1"
   xml:space="preserve"
   inkscape:version="1.3 (1:1.3+202307231459+0e150ed6c4)"
   sodipodi:docname="logo-light.svg"
   xmlns:inkscape="http://www.inkscape.org/namespaces/inkscape"
   xmlns:sodipodi="http://sodipodi.sourceforge.net/DTD/sodipodi-0.dtd"
   xmlns="http://www.w3.org/2000/svg"
   xmlns:svg="http://www.w3.org/2000/svg"><sodipodi:namedview
     id="namedview1"
     pagecolor="#505050"
     bordercolor="#eeeeee"
     borderopacity="1"
     inkscape:showpageshadow="0"
     inkscape:pageopacity="0"
     inkscape:pagecheckerboard="0"
     inkscape:deskcolor="#d1d1d1"
     inkscape:document-units="mm"
     inkscape:zoom="0.7483165"
     inkscape:cx="368.8279"
     inkscape:cy="-287.97975"
     inkscape:window-width="1920"
     inkscape:window-height="1051"
     inkscape:window-x="1920"
     inkscape:window-y="0"
     inkscape:window-maximized="1"
     inkscape:current-layer="layer1" /><defs
     id="defs1"><filter
       style="color-interpolation-filters:sRGB"
       inkscape:label="Greyscale"
       id="filter1"
       x="0"
       y="0"
       width="1"
       height="1"><feColorMatrix
         values="0.21 0.72 0.072 0 0 0.21 0.72 0.072 0 0 0.21 0.72 0.072 0 0 0 0 0 1 0 "
         id="feColorMatrix1"
         result="fbSourceGraphic" /><feColorMatrix
         result="fbSourceGraphicAlpha"
         in="fbSourceGraphic"
         values="0 0 0 -1 0 0 0 0 -1 0 0 0 0 -1 0 0 0 0 1 0"
         id="feColorMatrix2" /><feColorMatrix
         id="feColorMatrix3"
         values="0.21 0.72 0.072 0 0 0.21 0.72 0.072 0 0 0.21 0.72 0.072 0 0 0 0 0 1 0 "
         in="fbSourceGraphic" /></filter><clipPath
       clipPathUnits="userSpaceOnUse"
       id="cp1"><path
         d="M -575,-1324 H 5822 V 2306 H -575 Z"
         id="path1" /></clipPath><filter
       style="color-interpolation-filters:sRGB"
       inkscape:label="Greyscale"
       id="filter4"
       x="0"
       y="0"
       width="1"
       height="1"><feColorMatrix
         values="0.21 0.72 0.072 5.01847 0 0.21 0.72 0.072 5.01847 0 0.21 0.72 0.072 5.01847 0 0 0 0 1 0 "
         id="feColorMatrix4" /></filter></defs><g
     inkscape:label="Layer 1"
     inkscape:groupmode="layer"
     id="layer1"
     transform="translate(-77.285349,-19.793075)"><g
       id="g4"
       clip-path="url(#clipPath7)"
       transform="matrix(0.01033717,0,0,0.01033717,77.189317,19.772401)"
       style="filter:url(#filter4)"><path
         id="Layer"
         fill-rule="evenodd"
         class="shp0"
         d="m 5185.39,185.09 135.43,181.66 V 185.09 h 41.89 v 252.8 h -41.89 l -134.71,-181.3 v 181.3 h -42.61 v -252.8 z m -2712.48,0 83.42,167.93 83.07,-167.93 h 50.2 v 252.8 h -39.37 l -0.35,-188.88 -79.82,162.52 h -27.8 l -79.82,-162.52 v 188.88 h -40.09 v -252.8 z m 490.06,195.74 h -0.06 l -63.87,-150.24 -63.52,150.24 h -0.04 l -24.19,57.06 h -44.44 l 111.62,-252.8 h 43.68 l 110.52,252.8 h -45.51 z m 294.34,-195.74 v 38.28 h -80.17 v 214.52 h -42.63 V 223.37 h -79.82 v -38.28 z m 252.43,0 v 38.28 h -80.18 v 214.52 h -42.61 V 223.37 h -79.81 v -38.28 z m 260.37,0 v 38.28 h -137.95 v 68.62 h 123.52 v 37.92 h -123.52 v 69.7 h 142.3 v 38.28 h -184.91 v -252.8 z" /><path
         id="path2"
         fill-rule="evenodd"
         class="shp0"
         d="m 4030.12,437.89 -46.22,-76.56 c -3.6,0.36 -7.57,0.36 -11.55,0.36 h -59.96 v 76.2 h -42.61 v -252.8 h 102.57 c 64.65,0 101.83,31.42 101.83,86.31 0,40.45 -18.78,68.98 -52.36,81.98 l 56.7,84.51 z m -57.77,-114.48 c 38.99,0 61.39,-16.62 61.39,-50.93 0,-33.22 -22.4,-49.11 -61.39,-49.11 h -59.96 v 100.04 z m 244.47,-138.32 v 109.79 h 133.99 V 185.09 h 42.61 v 252.8 h -42.61 V 333.16 h -133.99 v 104.73 h -42.61 v -252.8 z m 533.43,126.4 c 0,72.23 -58.51,128.21 -134,128.21 -75.48,0 -133.99,-55.98 -133.99,-128.21 0,-72.59 58.51,-127.49 133.99,-127.49 75.49,0 134,55.26 134,127.49 z m -224.64,0 c 0,50.2 41.51,89.93 91,89.93 49.49,0 89.93,-39.73 89.93,-89.93 0,-50.2 -40.44,-89.2 -89.93,-89.2 -49.84,0 -91,39 -91,89.2 z m 473.8,126.4 -46.23,-76.56 c -3.59,0.36 -7.57,0.36 -11.54,0.36 h -59.96 v 76.2 h -42.61 v -252.8 h 102.57 c 64.65,0 101.83,31.42 101.83,86.31 0,40.45 -18.78,68.98 -52.37,81.98 l 56.71,84.51 z m -57.77,-114.48 c 38.99,0 61.39,-16.62 61.39,-50.93 0,-33.22 -22.4,-49.11 -61.39,-49.11 h -59.96 V 323.41 Z M 2934.38,680.28 h -68.74 l -14.07,32.29 h -15.33 l 56.65,-126.28 h 14.97 l 56.47,126.28 h -15.7 z m -5.77,-13.35 -28.69,-64.95 -28.32,64.95 z m 105.21,-67.11 c -16.24,0 -26.88,6.49 -26.88,17.32 0,32.83 71.08,15.69 70.89,61.51 0,20.93 -18.58,34.46 -45.63,34.46 -18.4,0 -36.45,-7.94 -48.35,-19.3 l 6.5,-12.45 c 11.72,11.18 27.78,17.68 42.03,17.68 18.22,0 29.59,-7.4 29.59,-19.66 0.18,-33.74 -70.91,-15.88 -70.91,-61.16 0,-19.85 17.5,-32.47 43.66,-32.47 14.62,0 29.59,4.68 40.06,11.73 l -6.15,12.8 c -11.35,-7.39 -24.71,-10.46 -34.81,-10.46 z m 124.7,0 c -16.23,0 -26.87,6.49 -26.87,17.32 0,32.83 71.08,15.69 70.89,61.51 0,20.93 -18.58,34.46 -45.64,34.46 -18.4,0 -36.44,-7.94 -48.35,-19.3 l 6.5,-12.45 c 11.73,11.18 27.78,17.68 42.03,17.68 18.22,0 29.59,-7.4 29.59,-19.66 0.18,-33.74 -70.9,-15.88 -70.9,-61.16 0,-19.85 17.49,-32.47 43.66,-32.47 14.61,0 29.59,4.68 40.05,11.73 l -6.14,12.8 c -11.36,-7.39 -24.71,-10.46 -34.82,-10.46 z m 173.77,-13.53 v 13.35 h -71.26 v 42.39 h 63.68 v 13.17 h -63.68 v 44.02 h 73.6 v 13.35 H 3246.6 V 586.29 Z m 125.96,0 v 13.35 h -41.31 V 712.57 H 3402.5 V 599.64 h -41.12 v -13.35 z m 121.83,0 46.18,91.64 46,-91.64 h 17.68 v 126.28 h -13.34 l -0.19,-105 -46,91.65 h -8.66 l -45.83,-91.65 v 105 h -13.7 V 586.29 Z" /><path
         id="path3"
         fill-rule="evenodd"
         class="shp0"
         d="m 3822.59,680.28 h -68.73 l -14.07,32.29 h -15.33 l 56.64,-126.28 h 14.98 l 56.46,126.28 h -15.7 z m -5.77,-13.35 -28.68,-64.95 -28.33,64.95 z m 85.01,-80.64 75.76,102.65 V 586.29 h 14.25 v 126.28 h -14.78 L 3901.28,610.1 v 102.47 h -14.42 V 586.29 Z m 222.67,93.99 h -68.73 l -14.07,32.29 h -15.33 l 56.64,-126.28 h 14.98 l 56.46,126.28 h -15.7 z m -5.77,-13.35 -28.68,-64.95 -28.33,64.95 z m 155,-16.06 h 12.81 v 45.83 c -12.45,9.92 -29.95,16.41 -46.91,16.41 -36.62,0 -65.85,-28.14 -65.85,-63.68 0,-35.54 29.41,-63.5 66.57,-63.5 17.5,0 34.46,6.67 46.54,17.32 l -8.29,10.46 c -10.29,-9.2 -24.18,-14.62 -38.25,-14.62 -28.86,0 -51.95,22.38 -51.95,50.34 0,28.14 23.27,50.51 52.13,50.51 11.37,0 23.45,-3.97 33.2,-10.64 z m 147.98,-64.58 v 13.35 h -71.26 v 42.39 h 63.68 v 13.17 h -63.68 v 44.02 h 73.61 v 13.35 h -88.03 V 586.29 Z m 64.07,0 46.19,91.64 46,-91.64 h 17.68 v 126.28 h -13.35 l -0.19,-105 -45.99,91.65 h -8.66 l -45.83,-91.65 v 105 h -13.7 V 586.29 Z m 248.49,0 v 13.35 H 4663 v 42.39 h 63.68 V 655.2 H 4663 v 44.02 h 73.61 v 13.35 h -88.03 V 586.29 Z m 61.19,0 75.76,102.65 V 586.29 h 14.25 v 126.28 h -14.79 L 4794.91,610.1 v 102.47 h -14.43 V 586.29 Z m 222.66,0 v 13.35 h -41.31 v 112.93 h -14.44 V 599.64 h -41.13 v -13.35 z m 183.7,93.99 h -68.73 l -14.07,32.29 h -15.33 l 56.64,-126.28 h 14.97 l 56.47,126.28 h -15.7 z m -5.77,-13.35 -28.68,-64.95 -28.33,64.95 z m 155.01,-16.06 h 12.81 v 45.83 c -12.45,9.92 -29.95,16.41 -46.91,16.41 -36.62,0 -65.85,-28.14 -65.85,-63.68 0,-35.54 29.41,-63.5 66.57,-63.5 17.5,0 34.46,6.67 46.54,17.32 l -8.29,10.46 c -10.29,-9.2 -24.18,-14.62 -38.25,-14.62 -28.86,0 -51.95,22.38 -51.95,50.34 0,28.14 23.27,50.51 52.13,50.51 11.37,0 23.45,-3.97 33.2,-10.64 z" /><path
         id="path4"
         fill-rule="evenodd"
         class="shp1"
         d="m 2024.84,769.86 h -81.64 l -79.22,-465.39 -165.56,460.58 -163.17,-448.66 -55.37,311.57 -38.18,-38 40.82,-48.04 -43.23,45.51 -8.73,-7.64 -19.56,-17.28 -12.52,-10.96 12.26,12.22 23.5,23.43 c -2.53,-0.78 -6.04,-1.69 -11.8,-4.58 -9.59,-6.39 -8.8,-4.46 -12.05,-5.97 l -1.8,-1.01 -0.66,-0.37 c -1.64,-0.96 -3.51,-2.1 -6.92,-4.57 -16.88,-9.52 0,-4.82 0,-4.82 0,0 -14.47,-7.11 -24.09,-14.33 -6.74,-4.15 -8.38,-3 -10.95,-3.37 -2.79,-2.04 -5.43,-4.15 -8.19,-6.26 -2.18,-2.16 -4.47,-4.45 -6.88,-6.87 0.61,-0.29 0.79,-1.01 -0.35,-2.76 -2.18,-4.21 -5.43,-5.66 -9.69,-7.29 -2.41,-2.58 -4.75,-7.16 -7.16,-7.16 -2.42,-2.29 -4.71,-4.69 -7.12,-4.69 -2.41,-2.41 -4.82,-7.23 -9.62,-9.76 -2.41,-2.28 -4.7,-2.28 -9.64,-4.69 -7.23,-7.24 -21.56,-23.97 -26.38,-31.19 -7.09,-7.1 -7.09,-4.82 -19.14,-9.51 -12.03,-4.94 -2.41,9.51 -2.41,9.51 h -7.21 c 0,0 -4.71,0 -9.64,-7.1 -2.3,-7.35 -16.74,-2.41 -16.74,-2.41 h 2.41 c 2.41,2.41 0,0 2.41,0 h 7.09 c 2.53,0 0,0 2.53,2.41 2.3,2.28 0,4.69 0,7.1 0,2.41 2.3,7.22 2.3,7.22 0,0 0,2.53 2.53,4.82 v 4.69 c 0,0 4.7,7.22 4.7,9.76 0,3.73 4.56,5.9 8.78,7.82 1.1,0.49 2.22,1.09 3.25,1.57 4.7,2.53 23.96,19.26 38.29,36.12 12.17,14.34 2.41,4.82 4.82,14.34 2.41,4.92 4.82,9.63 4.82,16.85 5.9,11.73 11.98,31.01 21.67,45.64 2.18,3.37 4.45,6.8 7.12,9.51 14.44,11.92 0,2.41 21.67,23.95 16.97,17.04 22.14,29.39 28.18,36.26 1.61,1.86 3.23,3.54 5.29,4.57 6.13,4.58 13.01,7.11 17.92,9.03 2.91,1.08 5.32,2.1 6.16,3.01 2.41,2.4 0,2.4 0,2.4 h -2.41 l -30.1,-1.98 -5.9,-0.42 c -2.41,2.4 2.41,4.81 -7.23,7.11 -9.52,2.52 16.74,14.45 -14.32,14.45 -33.61,0 -40.82,-11.93 -76.84,-24.08 h -48.02 c -2.3,0 -2.3,-2.3 -4.71,-2.3 v -2.41 c -24.08,-9.51 -55.16,-33.6 -79.22,-31.18 -14.35,0 19.26,48.04 4.8,48.04 -38.41,2.42 -95.96,-4.82 -103.19,-4.82 -16.73,0 -50.32,-12.04 -64.78,-24.08 -12.03,-11.91 7.23,4.82 -23.97,-21.56 -28.76,-28.77 -119.92,-52.74 -134.36,-71.88 -3.86,-6.32 -0.3,-11.74 6.01,-16.37 13.02,-9.57 38.79,-15.66 42.04,-17.34 4.8,-2.4 7.09,0 14.32,0 4.82,0 26.49,2.52 31.17,0 4.83,-2.4 2.42,0 4.83,-2.4 2.41,-2.3 0,0 4.82,-4.71 2.41,-2.41 2.41,0 7.09,-2.41 4.94,-2.4 2.53,-2.4 4.94,-4.81 0,-2.41 0,-4.82 2.29,-4.82 2.53,0 2.53,2.41 4.94,2.41 4.7,-2.41 2.41,-2.41 4.7,-4.82 0,-2.4 2.42,-2.4 2.42,-4.81 2.38,-2.29 9.61,-14.33 9.61,-14.33 h 4.82 v -9.63 c 0,-2.53 2.3,-2.53 2.3,-2.53 0,0 2.53,7.35 0,7.35 -2.3,2.41 2.53,2.41 2.53,2.41 v 7.1 h 2.29 c 0,0 2.39,2.4 4.92,2.4 2.29,0 0,0 0,-4.81 -2.53,-2.29 2.29,-2.29 2.29,-2.29 0,0 0,2.29 2.41,7.1 0,2.53 2.41,2.53 2.41,0 2.41,-2.4 0,-2.4 0,-2.4 -2.41,-2.41 -2.41,-2.41 -2.41,-7.1 2.41,-2.41 2.41,4.69 2.41,4.69 l 4.82,2.41 v -7.1 c 0,-2.41 0,-2.41 -2.41,-7.23 -2.41,-2.53 0,-2.53 0,-4.81 v -16.87 c 0,-2.41 2.41,-2.41 4.7,-2.41 2.53,0 2.53,2.41 4.92,4.83 2.41,2.52 2.41,9.62 2.41,12.04 2.29,2.41 2.29,2.41 4.82,7.22 0,2.41 2.3,-2.53 2.3,-2.53 l -2.3,-4.69 c 0,0 -2.53,-4.7 -2.53,-7.24 0,-2.28 2.53,2.54 2.53,2.54 l 2.3,4.7 c 0,0 2.4,2.41 4.81,4.69 2.42,0 2.42,2.53 0,12.16 0,12.04 2.42,2.29 2.42,4.7 2.38,2.4 0,2.4 0,9.63 0,4.81 4.79,7.22 4.79,9.63 0,2.41 4.83,2.41 7.24,2.41 l 2.41,2.41 2.29,-2.41 v -19.27 c 0,-4.81 -2.29,-4.81 -2.29,-7.1 0,-2.4 2.29,-4.81 2.29,-4.81 l 2.53,2.41 v 4.69 c 2.29,2.41 2.29,2.41 4.68,2.41 v 12.04 c 0,2.4 2.41,4.81 2.41,7.22 v 7.22 c 2.41,2.41 7.23,0 9.76,-2.4 0,-2.41 -2.53,-4.82 -2.53,-7.23 v -4.81 c 0,-4.7 0,-7.11 -2.41,-9.64 0,0 2.41,-2.4 2.41,-4.81 l -7.23,-9.51 v -24.09 c 0,-4.69 0,-14.32 2.41,-21.55 v -19.15 c 2.41,-7.21 2.41,-4.82 2.41,-2.28 v -2.54 l -26.38,-38.4 c -2.41,-2.41 -2.41,-2.41 -2.41,-4.82 l -2.38,-2.29 v -2.41 c 0,-19.26 4.79,-9.63 2.38,-33.59 0,-7.22 0,0 2.41,-14.44 0,-2.41 0,-2.41 2.41,-7.24 v -2.41 l 2.42,-4.81 c 0.25,-0.54 0.25,-0.54 0.49,-0.78 -0.24,0.06 -0.49,-0.12 -0.49,-1.63 -2.42,-2.41 0,-2.41 0,-2.41 h 2.41 v -2.28 l -2.41,-4.82 c 0,0 2.41,-4.94 2.41,-7.22 2.41,0 2.41,-4.7 4.7,-4.7 l 2.53,4.7 c 2.29,2.28 2.29,0 2.29,-2.41 0,-2.29 -2.29,-4.69 -2.29,-4.69 v -14.45 c 0,-2.42 2.29,-4.83 2.29,-4.83 v -4.81 c 0,-4.82 9.62,-4.82 12.03,-7.23 l 4.82,-4.81 c 0,0 0.84,0.3 1.57,0.96 0.35,0.37 0.84,0.6 0.84,1.44 v 14.45 c 0,2.41 2.41,2.41 2.41,2.41 v -21.67 l 0.36,0.79 2.05,4.02 v 16.86 c 0,0 2.39,2.42 2.39,4.7 v 2.41 l -2.39,4.82 c 0,2.41 2.39,7.34 4.8,9.63 0,2.41 2.41,2.41 7.12,7.22 4.82,4.82 2.41,4.82 4.82,7.23 0,2.28 2.41,4.69 2.41,9.52 v 12.04 c 0,2.28 2.39,2.28 4.91,7.22 2.3,2.28 4.71,4.81 4.71,4.81 v -14.44 c -2.41,-2.3 -2.41,-7.24 -4.71,-12.05 v -7.1 c -2.52,-4.82 -2.52,-7.23 -2.52,-7.23 v -2.53 c -2.39,-2.28 -2.39,-2.28 -4.8,-4.69 -4.82,-4.69 -2.41,-9.63 -4.82,-9.63 0,-2.29 -2.41,-16.74 -4.71,-23.97 -2.41,-9.63 -4.82,-7.22 -7.21,-9.63 -0.61,-0.59 0,-1.2 0.12,-1.8 0.35,-1.75 2.27,-3.56 2.27,-5.42 l -2.39,-2.29 c -2.41,-2.41 -4.82,-2.41 -4.82,-4.82 -2.41,-2.4 -4.7,2.41 -7.23,-2.4 -4.82,-2.41 -2.41,0 -7.23,-7.23 -4.8,-4.81 -2.41,-4.81 -2.41,-4.81 0,-7.47 -8.9,-28.18 -20.83,-46.06 -3.25,-4.94 -6.74,-9.76 -10.34,-13.92 0,-2.39 0,-2.39 -2.3,-2.39 0,-2.18 -0.72,-3.74 -1.69,-5.13 -0.41,-0.54 -1.14,-1.08 -1.68,-1.63 -0.96,-0.78 -1.87,-1.55 -3.13,-2.28 -0.36,-0.12 -0.47,-0.3 -0.73,-0.48 -2.39,2.4 -4.92,4.81 -7.21,7.1 -4.82,4.81 -11.93,7.23 -16.85,16.86 -4.82,9.51 -4.82,16.74 -4.82,23.96 v 21.56 l -2.3,9.63 v 9.63 h -2.41 c -4.82,7.23 -7.23,-7.22 -14.44,2.41 -2.29,2.29 -2.29,4.82 -2.29,7.22 -2.41,2.29 -4.82,4.7 -4.82,7.1 -2.53,2.41 -4.82,4.82 -4.82,7.23 -2.41,0 -7.21,0 -9.62,2.41 -7.23,2.41 -12.06,-7.23 -12.06,7.22 v 2.42 c -4.68,9.51 -2.4,9.51 -2.4,14.45 v 7.1 c -4.8,4.81 -4.8,2.28 -7.1,9.63 v 2.41 c -2.41,4.69 0,7.1 0,7.1 l -2.41,9.75 -2.52,6.99 c -7.12,7.22 -11.92,-2.28 -11.92,9.75 0,11.92 -2.29,31.07 -12.05,36 -4.7,1.63 -8.19,-0.78 -9.5,0 l 19.26,-40.81 -21.67,40.81 1.92,0.9 c -0.12,0.79 -0.07,1.76 0.49,3.8 0,12.05 2.41,9.64 -4.82,16.74 -2.65,3.97 -6.63,5.06 -10.6,6.02 -3.26,0.84 -6.51,1.56 -8.67,3.73 -2.4,4.7 -7.11,9.51 -11.93,16.73 -4.82,7.23 -9.62,0 -16.73,9.52 -4.83,7.23 -4.83,7.23 -7.24,12.17 0,2.28 -2.38,4.69 -4.79,7.1 -9.65,4.81 -21.68,12.04 -26.5,14.32 -7.11,2.41 -9.52,4.83 -14.32,7.35 -4.82,0 -7.12,7.1 -9.64,11.93 -2.41,4.81 -7.23,4.81 -14.33,4.81 -4.47,0 -10.36,-6.09 -14.46,-10.96 v 22.88 c -2.41,2.41 -2.41,4.81 -2.41,9.75 2.41,4.7 -2.27,2.29 2.41,9.51 8.14,12.23 1.76,13.19 9.52,26.02 3.84,-0.54 7.36,-1.94 7.36,-1.94 0,0 0.88,-2.52 1.61,-5.47 -3.07,-3.13 -4.03,-4.16 -4.03,-4.16 0,0 -2.29,-2.41 -2.29,-4.82 4.71,2.41 11.91,-9.63 11.91,-9.63 h 2.3 c 0,0 4.93,-2.41 12.05,0 2.39,0 4.8,0 7.21,4.82 2.41,4.81 2.41,4.81 4.82,7.22 2.29,4.71 4.7,7.11 7.11,7.11 2.04,0 5.65,-1.21 8.17,-0.24 0.49,0.12 1.1,-0.13 1.45,0.24 l 2.41,4.93 c -2.41,2.3 -4.82,0 -4.82,7.11 0,4.82 0,2.41 2.41,7.23 2.41,4.69 2.41,14.44 7.23,16.73 2.3,2.53 4.83,2.53 2.3,2.53 -2.3,0 -11.94,-4.82 -11.94,-4.82 h -2.41 c -2.41,2.29 0,2.29 -2.41,2.29 -2.39,0 -4.8,-2.29 -7.21,-2.29 -1.57,-1.74 -3.25,-3.37 -4.94,-5.05 -0.72,-0.73 -1.45,-1.5 -2.17,-2.29 -2.41,-2.41 -2.41,-4.57 -4.82,-2.41 0,0 0,4.94 -2.39,0 -4.82,-2.16 -7.12,-4.69 -9.64,-9.51 -2.41,-2.41 -2.41,-2.41 -4.71,-4.82 -2.52,-4.57 1.95,-2.65 -2.27,-6.86 -3.13,2.89 -6.15,5.72 -9.22,8.85 0.77,1.08 0.91,1.57 1.87,2.83 0,0 -12.05,-7.22 -14.46,-14.45 -2.41,-9.52 -4.68,-9.52 -4.68,-9.52 -2.41,2.41 -4.82,0 -4.82,2.41 0,4.71 -2.41,2.41 0,7.11 2.41,2.52 2.41,2.52 4.82,4.93 2.27,0 4.68,0 2.27,2.3 -2.27,0 -7.09,0 -9.5,-2.3 -2.53,0 -4.82,-2.41 -7.24,-2.41 -2.33,2.36 -2.41,0.13 -7.09,2.36 -18.41,22.87 -34.8,43.65 -59.49,62.91 -3.84,-0.72 -7.7,-1.44 -11.8,-2.35 -11.44,-2.46 -23.96,-5.96 -37.67,-10.65 -2.3,-0.79 -4.1,-1.09 -6.39,-1.94 0,0 2.41,-2.4 -7.12,-7.22 -9.62,-2.41 0,9.63 -7.21,19.15 -4.47,7.46 -0.84,12.1 1.57,16.86 0.58,1.15 1.12,2.28 1.43,3.43 0.49,1.93 0.49,3.91 -0.59,6.2 -1.21,4.75 0,6.02 2.65,7.47 -6.39,2.41 -12.59,4.75 -18.91,7.1 L 501.29,297.13 333.2,757.81 170.17,309.17 90.92,769.86 H 9.29 L 143.67,35.59 333.2,494 522.84,35.59 622.19,571.18 1026.63,2 1412.57,553.97 1506.49,40.53 1698.42,498.7 1885.65,40.53 Z M 1012.2,167.68 c 4.81,0 26.49,21.44 35.99,31.19 v 2.29 c 2.41,2.41 4.82,4.81 7.35,7.22 2.29,0 2.29,2.41 2.29,2.41 v 9.63 h -2.29 v 4.82 c 0,0 2.29,2.29 4.7,4.69 0,0 2.41,0 4.82,4.83 2.39,2.52 0,0 0,2.52 7.21,9.52 16.74,19.03 19.15,23.96 h 2.39 l 2.52,2.29 c 2.3,2.41 2.3,2.41 2.3,4.81 v 2.41 l 4.82,2.41 h 4.82 l 2.41,2.41 c 0,0 2.41,0 2.41,2.41 2.41,0 4.8,-2.41 4.8,-2.41 l -12.15,-36 -0.72,-2.17 c -8.92,-11.62 -19.03,-27.22 -20.83,-29.02 0,-2.41 -7.12,-9.51 -9.53,-12.04 -2.39,-2.41 -9.62,-9.51 -11.91,-11.93 -4.94,-2.39 -4.94,-7.21 -12.17,-12.02 -4.68,-4.71 -2.39,0 -9.5,-2.42 -7.24,-2.29 -4.82,-2.29 -12.06,-7.1 -9.61,-4.82 -9.61,-2.41 -14.44,-2.41 0,0 -1.68,1.21 -3.72,2.7 3.49,1.4 4.21,0.19 8.55,4.52 z m 93.68,191.82 -2.41,-2.29 v -4.94 c -2.41,2.53 -2.41,2.53 -4.94,4.94 v 4.82 l 4.94,2.28 c 2.41,0 2.41,-2.28 2.41,-4.81 z m -33.61,196.75 c 2.3,2.52 4.71,2.52 4.71,2.52 h 4.82 l -4.82,-4.92 -19.15,-31.2 v 4.94 c 0,0 0,2.29 4.82,7.1 2.41,7.23 2.41,4.82 2.41,9.64 0,2.4 2.39,2.4 4.8,7.22 0,2.3 2.41,2.3 2.41,4.7 z m 27.57,-316.5 1.22,2.23 7.23,9.63 c 7.09,9.63 14.32,21.55 11.91,21.55 v 2.41 c 0,0 -2.41,0 -2.41,2.41 l -2.41,2.41 v 2.4 c 4.82,2.41 16.85,7.11 19.26,9.52 v -2.41 c 0,-1.5 -2.99,-7.05 -5.17,-12.1 -1.8,-3.37 -3.37,-6.21 -4.44,-9.46 -4.83,-7.1 -12.06,-14.32 -19.15,-21.54 -1.82,-1.76 -3.93,-4.46 -6.04,-7.05 z m 58.77,162.98 c 0,-4.82 2.41,-4.82 2.41,-4.82 l -2.41,-7.11 v -2.52 l 0.12,-0.12 c 0.11,-0.31 2.41,-4.69 4.58,-4.69 v 4.81 c 0,0 1.15,1.14 2.53,2.52 0,-4.93 0,-9.63 -2.53,-14.45 0,-7.22 -4.7,-19.14 -7.11,-26.36 -4.82,-4.94 -9.62,-19.26 -9.62,-19.26 0,0 -2.67,-13.67 -6.16,-25.48 -0.72,0.67 -0.95,1.51 -0.95,1.51 h -16.86 v 2.41 l -2.41,2.28 -2.41,7.35 v -2.41 c -1.07,2.17 -1.56,3.68 -1.92,4.82 -0.37,1.44 -0.49,2.28 -0.49,2.28 0,2.41 0,2.41 -2.41,4.82 l 2.41,2.42 c 0,0 -2.41,0 -2.41,2.39 -2.29,2.41 0,0 -2.29,4.94 h -2.39 c 0,2.3 -2.41,4.71 -2.41,6.99 l 2.41,4.94 -2.41,2.28 v 4.94 c 0,7.1 7.09,14.33 9.5,19.14 v 4.82 c 0,2.3 2.41,2.3 2.41,4.7 l 2.41,2.41 c 2.41,2.52 4.83,2.52 4.83,2.52 h 2.41 c 0,0 -2.41,0 -2.41,-2.52 v -2.41 c -7.24,-2.4 7.2,-14.33 -4.83,-26.37 l -2.41,-4.7 4.82,2.41 h 2.42 l -2.42,-2.41 c 0,0 0,-2.53 -2.41,-4.81 l -2.41,-2.53 c 0,0 0,-2.41 -2.41,-4.69 0,-4.71 2.41,0 2.41,0 l 2.41,2.28 c 0,0 2.41,0 2.41,2.41 2.42,2.53 2.42,2.53 4.83,4.81 2.38,4.94 14.44,21.68 14.44,26.49 2.29,2.41 2.29,4.71 2.29,7.11 0,2.41 0,2.41 2.41,4.93 2.41,4.7 4.8,21.44 4.8,23.84 0,2.54 2.41,4.82 2.41,2.54 h 4.82 c 0,0 2.41,-2.54 2.41,-4.94 v -2.16 c 0,0 -2.41,-4.94 -2.41,-7.35 z m 280.68,189.58 40.59,35.71 -2.3,12.94 c -0.61,-2.89 -1.8,-6.26 -16.62,-19.93 -1.99,-1.93 -3.55,-3.07 -5.35,-4.69 -3.56,-3.2 -6.93,-6.15 -9.95,-8.31 -0.59,-0.61 -0.84,-0.73 -1.43,-1.32 -9.76,-7.24 -4.94,-4.82 -4.94,-11.93 0,-1.09 -0.23,-1.51 -0.3,-2.29 l 0.3,-0.24 z" /></g></g><style
     id="style1">&#10;		tspan { white-space:pre }&#10;		.shp0 { fill: #d3a964 } &#10;		.shp1 { fill: #d2a663 } &#10;	</style></svg>
