<?xml version="1.0" encoding="UTF-8" standalone="no"?>
<!-- Created with Inkscape (http://www.inkscape.org/) -->

<svg
   width="29.692446mm"
   height="11.311968mm"
   viewBox="0 0 29.692446 11.311968"
   version="1.1"
   id="svg1"
   xml:space="preserve"
   inkscape:export-filename="backoffice"
   inkscape:export-xdpi="96"
   inkscape:export-ydpi="96"
   inkscape:version="1.3 (1:1.3+202307231459+0e150ed6c4)"
   sodipodi:docname="logomark-dark.svg"
   xmlns:inkscape="http://www.inkscape.org/namespaces/inkscape"
   xmlns:sodipodi="http://sodipodi.sourceforge.net/DTD/sodipodi-0.dtd"
   xmlns="http://www.w3.org/2000/svg"
   xmlns:svg="http://www.w3.org/2000/svg"><sodipodi:namedview
     id="namedview1"
     pagecolor="#505050"
     bordercolor="#eeeeee"
     borderopacity="1"
     inkscape:showpageshadow="0"
     inkscape:pageopacity="0"
     inkscape:pagecheckerboard="0"
     inkscape:deskcolor="#d1d1d1"
     inkscape:document-units="mm"
     inkscape:zoom="1.5347506"
     inkscape:cx="2.9320725"
     inkscape:cy="109.13826"
     inkscape:window-width="1920"
     inkscape:window-height="1051"
     inkscape:window-x="1920"
     inkscape:window-y="0"
     inkscape:window-maximized="1"
     inkscape:current-layer="layer1" /><defs
     id="defs1"><clipPath
       clipPathUnits="userSpaceOnUse"
       id="cp1"><path
         d="M -575,-1324 H 5822 V 2306 H -575 Z"
         id="path1" /></clipPath><filter
       style="color-interpolation-filters:sRGB"
       inkscape:label="Colorize"
       id="filter4"
       x="0"
       y="0"
       width="1"
       height="1"><feComposite
         in2="SourceGraphic"
         operator="arithmetic"
         k1="0"
         k2="1"
         result="composite1"
         id="feComposite3"
         k3="0"
         k4="0" /><feColorMatrix
         in="composite1"
         values="1"
         type="saturate"
         result="colormatrix1"
         id="feColorMatrix3" /><feFlood
         flood-opacity="1"
         flood-color="rgb(0,0,0)"
         result="flood1"
         id="feFlood3" /><feBlend
         in="flood1"
         in2="colormatrix1"
         mode="multiply"
         result="blend1"
         id="feBlend3" /><feBlend
         in2="blend1"
         mode="screen"
         result="blend2"
         id="feBlend4" /><feColorMatrix
         in="blend2"
         values="1"
         type="saturate"
         result="colormatrix2"
         id="feColorMatrix4" /><feComposite
         in="colormatrix2"
         in2="SourceGraphic"
         operator="in"
         result="composite2"
         id="feComposite4" /></filter></defs><g
     inkscape:label="Layer 1"
     inkscape:groupmode="layer"
     id="layer1"
     transform="translate(335.05364,29.657975)"><path
       id="path4"
       fill-rule="evenodd"
       class="shp1"
       d="m -290.51497,-12.690041 h -2.40541 l -2.33411,-13.712074 -4.878,13.570354 -4.80758,-13.219147 -1.6314,9.17998 -1.12492,-1.119618 1.20271,-1.415432 -1.27372,1.340889 -0.25721,-0.225102 -0.57631,-0.509131 -0.36889,-0.322921 0.36123,0.360045 0.69239,0.690333 c -0.0745,-0.02298 -0.17796,-0.04979 -0.34767,-0.134944 -0.28255,-0.188272 -0.25928,-0.131407 -0.35503,-0.175898 l -0.053,-0.02976 -0.0195,-0.0109 c -0.0483,-0.02829 -0.10341,-0.06187 -0.20388,-0.134649 -0.49735,-0.280494 0,-0.142015 0,-0.142015 0,0 -0.42634,-0.209486 -0.70978,-0.422213 -0.19859,-0.122274 -0.24691,-0.08839 -0.32263,-0.09929 -0.0822,-0.06011 -0.15999,-0.122274 -0.24131,-0.184442 -0.0642,-0.06364 -0.1317,-0.131113 -0.20271,-0.202415 0.018,-0.0085 0.0233,-0.02976 -0.0103,-0.08132 -0.0642,-0.124042 -0.15999,-0.166764 -0.2855,-0.21479 -0.071,-0.07602 -0.13995,-0.210959 -0.21096,-0.210959 -0.0713,-0.06747 -0.13877,-0.138184 -0.20978,-0.138184 -0.071,-0.07101 -0.14202,-0.213022 -0.28344,-0.287565 -0.071,-0.06718 -0.13848,-0.06718 -0.28403,-0.138185 -0.21302,-0.213316 -0.63524,-0.706243 -0.77725,-0.91897 -0.2089,-0.209192 -0.2089,-0.142015 -0.56393,-0.280199 -0.35445,-0.14555 -0.071,0.280199 -0.071,0.280199 h -0.21243 c 0,0 -0.13878,0 -0.28403,-0.209192 -0.0678,-0.216557 -0.49322,-0.07101 -0.49322,-0.07101 h 0.071 c 0.071,0.07101 0,0 0.071,0 h 0.2089 c 0.0745,0 0,0 0.0745,0.07101 0.0678,0.06718 0,0.138185 0,0.209192 0,0.07101 0.0678,0.212727 0.0678,0.212727 0,0 0,0.07454 0.0745,0.142015 v 0.138184 c 0,0 0.13848,0.212728 0.13848,0.287565 0,0.1099 0.13435,0.173836 0.25869,0.230406 0.0324,0.01444 0.0654,0.03212 0.0958,0.04626 0.13847,0.07454 0.70594,0.567469 1.12816,1.064226 0.35857,0.422508 0.071,0.142014 0.14201,0.422508 0.071,0.144961 0.14202,0.283735 0.14202,0.496462 0.17383,0.345608 0.35297,0.913667 0.63847,1.34472 0.0642,0.09929 0.13112,0.200352 0.20978,0.280199 0.42546,0.351206 0,0.07101 0.63848,0.705653 0.5,0.50206 0.65233,0.865936 0.83029,1.068351 0.0474,0.0548 0.0952,0.104301 0.15586,0.134649 0.18061,0.134943 0.38332,0.209486 0.52799,0.266056 0.0857,0.03182 0.15674,0.06187 0.18149,0.08869 0.071,0.07071 0,0.07071 0,0.07071 h -0.071 l -0.88686,-0.05834 -0.17384,-0.01238 c -0.071,0.07071 0.071,0.14172 -0.21302,0.209486 -0.28049,0.07425 0.49322,0.42575 -0.42192,0.42575 -0.99027,0 -1.2027,-0.351501 -2.26398,-0.709484 h -1.41484 c -0.0678,0 -0.0678,-0.06777 -0.13878,-0.06777 v -0.07101 c -0.70948,-0.280199 -1.62521,-0.989978 -2.33411,-0.918676 -0.4228,0 0.56747,1.415433 0.14143,1.415433 -1.1317,0.0713 -2.82733,-0.142015 -3.04035,-0.142015 -0.49293,0 -1.48261,-0.354742 -1.90865,-0.709484 -0.35445,-0.350912 0.21302,0.142015 -0.70625,-0.635236 -0.84737,-0.847668 -3.53327,-1.553911 -3.95873,-2.117845 -0.11373,-0.18621 -0.009,-0.345903 0.17708,-0.482319 0.38361,-0.281967 1.14289,-0.4614 1.23865,-0.510899 0.14142,-0.07071 0.20889,0 0.42192,0 0.14201,0 0.78049,0.07425 0.91838,0 0.14231,-0.07071 0.0713,0 0.14231,-0.07071 0.071,-0.06777 0,0 0.14201,-0.138774 0.071,-0.07101 0.071,0 0.2089,-0.07101 0.14555,-0.07071 0.0745,-0.07071 0.14555,-0.14172 0,-0.07101 0,-0.142015 0.0675,-0.142015 0.0745,0 0.0745,0.07101 0.14555,0.07101 0.13848,-0.07101 0.071,-0.07101 0.13848,-0.142015 0,-0.07071 0.0713,-0.07071 0.0713,-0.14172 0.0701,-0.06747 0.28315,-0.422214 0.28315,-0.422214 h 0.14201 v -0.283734 c 0,-0.07454 0.0678,-0.07454 0.0678,-0.07454 0,0 0.0745,0.216557 0,0.216557 -0.0678,0.07101 0.0745,0.07101 0.0745,0.07101 v 0.209191 h 0.0675 c 0,0 0.0704,0.07071 0.14496,0.07071 0.0675,0 0,0 0,-0.14172 -0.0745,-0.06747 0.0675,-0.06747 0.0675,-0.06747 0,0 0,0.06747 0.071,0.209192 0,0.07454 0.071,0.07454 0.071,0 0.071,-0.07071 0,-0.07071 0,-0.07071 -0.071,-0.07101 -0.071,-0.07101 -0.071,-0.209191 0.071,-0.07101 0.071,0.138184 0.071,0.138184 l 0.14202,0.07101 v -0.209191 c 0,-0.07101 0,-0.07101 -0.071,-0.213022 -0.071,-0.07454 0,-0.07454 0,-0.14172 v -0.497052 c 0,-0.07101 0.071,-0.07101 0.13848,-0.07101 0.0745,0 0.0745,0.07101 0.14496,0.142309 0.071,0.07425 0.071,0.28344 0.071,0.354742 0.0675,0.07101 0.0675,0.07101 0.14201,0.212728 0,0.07101 0.0678,-0.07454 0.0678,-0.07454 l -0.0678,-0.138185 c 0,0 -0.0745,-0.138479 -0.0745,-0.213316 0,-0.06718 0.0745,0.07484 0.0745,0.07484 l 0.0678,0.138479 c 0,0 0.0707,0.07101 0.14172,0.138185 0.0713,0 0.0713,0.07454 0,0.358277 0,0.354742 0.0713,0.06747 0.0713,0.138479 0.0701,0.07071 0,0.07071 0,0.283735 0,0.14172 0.14113,0.212727 0.14113,0.283735 0,0.07101 0.14231,0.07101 0.21332,0.07101 l 0.071,0.07101 0.0675,-0.07101 v -0.567764 c 0,-0.14172 -0.0675,-0.14172 -0.0675,-0.209192 0,-0.07071 0.0675,-0.14172 0.0675,-0.14172 l 0.0745,0.07101 v 0.138184 c 0.0675,0.07101 0.0675,0.07101 0.13789,0.07101 v 0.354742 c 0,0.07071 0.071,0.14172 0.071,0.212728 v 0.212727 c 0.071,0.07101 0.21303,0 0.28757,-0.07071 0,-0.07101 -0.0745,-0.142014 -0.0745,-0.213022 v -0.14172 c 0,-0.138479 0,-0.209486 -0.071,-0.284029 0,0 0.071,-0.07071 0.071,-0.14172 l -0.21303,-0.280199 v -0.709779 c 0,-0.138184 0,-0.421919 0.071,-0.634941 v -0.564228 c 0.071,-0.212433 0.071,-0.142015 0.071,-0.06718 v -0.07484 l -0.77725,-1.131403 c -0.071,-0.07101 -0.071,-0.07101 -0.071,-0.142014 l -0.0701,-0.06747 v -0.07101 c 0,-0.56747 0.14113,-0.283735 0.0701,-0.989683 0,-0.212728 0,0 0.071,-0.425455 0,-0.07101 0,-0.07101 0.071,-0.213317 v -0.07101 l 0.0713,-0.14172 c 0.007,-0.01591 0.007,-0.01591 0.0144,-0.02298 -0.007,0.0018 -0.0144,-0.0035 -0.0144,-0.04802 -0.0713,-0.07101 0,-0.07101 0,-0.07101 h 0.071 v -0.06718 l -0.071,-0.142014 c 0,0 0.071,-0.145551 0.071,-0.212728 0.071,0 0.071,-0.138479 0.13847,-0.138479 l 0.0745,0.138479 c 0.0675,0.06718 0.0675,0 0.0675,-0.07101 0,-0.06747 -0.0675,-0.138184 -0.0675,-0.138184 v -0.42575 c 0,-0.0713 0.0675,-0.142309 0.0675,-0.142309 v -0.14172 c 0,-0.142015 0.28344,-0.142015 0.35445,-0.213022 l 0.14201,-0.14172 c 0,0 0.0247,0.0088 0.0463,0.02829 0.0103,0.0109 0.0248,0.01768 0.0248,0.04243 v 0.425749 c 0,0.07101 0.071,0.07101 0.071,0.07101 v -0.638476 l 0.0106,0.02328 0.0604,0.118444 v 0.496756 c 0,0 0.0704,0.0713 0.0704,0.138479 v 0.07101 l -0.0704,0.142014 c 0,0.07101 0.0704,0.216263 0.14143,0.283735 0,0.07101 0.071,0.07101 0.20978,0.212727 0.14201,0.142015 0.071,0.142015 0.14201,0.213022 0,0.06718 0.071,0.138185 0.071,0.280494 v 0.354742 c 0,0.06718 0.0704,0.06718 0.14467,0.212727 0.0678,0.06718 0.13877,0.14172 0.13877,0.14172 v -0.425454 c -0.071,-0.06777 -0.071,-0.213317 -0.13877,-0.355037 v -0.209192 c -0.0743,-0.142014 -0.0743,-0.213022 -0.0743,-0.213022 v -0.07454 c -0.0704,-0.06718 -0.0704,-0.06718 -0.14143,-0.138184 -0.14201,-0.138184 -0.071,-0.283735 -0.14201,-0.283735 0,-0.06747 -0.071,-0.493221 -0.13877,-0.706243 -0.071,-0.283734 -0.14202,-0.212727 -0.21244,-0.283734 -0.018,-0.01738 0,-0.03536 0.004,-0.05304 0.0103,-0.05156 0.0669,-0.10489 0.0669,-0.159693 l -0.0704,-0.06747 c -0.071,-0.07101 -0.14201,-0.07101 -0.14201,-0.142015 -0.071,-0.07071 -0.13848,0.07101 -0.21302,-0.07071 -0.14202,-0.07101 -0.071,0 -0.21303,-0.213022 -0.14142,-0.14172 -0.071,-0.14172 -0.071,-0.14172 0,-0.220093 -0.26223,-0.830284 -0.61373,-1.357094 -0.0958,-0.14555 -0.19858,-0.287565 -0.30465,-0.410133 0,-0.07042 0,-0.07042 -0.0678,-0.07042 0,-0.06423 -0.0212,-0.110193 -0.0498,-0.151148 -0.0121,-0.01591 -0.0336,-0.03182 -0.0495,-0.04803 -0.0283,-0.02298 -0.0551,-0.04567 -0.0922,-0.06718 -0.0106,-0.0035 -0.0139,-0.0088 -0.0215,-0.01414 -0.0704,0.07071 -0.14496,0.14172 -0.21243,0.209191 -0.14202,0.141721 -0.35151,0.213022 -0.49647,0.496757 -0.14201,0.280199 -0.14201,0.493221 -0.14201,0.705948 v 0.635236 l -0.0678,0.283735 v 0.283734 h -0.071 c -0.14201,0.213022 -0.21302,-0.212727 -0.42545,0.07101 -0.0675,0.06747 -0.0675,0.142014 -0.0675,0.212727 -0.071,0.06747 -0.14202,0.138479 -0.14202,0.209192 -0.0745,0.07101 -0.14201,0.142014 -0.14201,0.213022 -0.071,0 -0.21243,0 -0.28344,0.07101 -0.21302,0.07101 -0.35533,-0.213022 -0.35533,0.212727 v 0.0713 c -0.13789,0.280199 -0.0707,0.280199 -0.0707,0.42575 v 0.209191 c -0.14143,0.14172 -0.14143,0.06718 -0.2092,0.283735 v 0.07101 c -0.071,0.138185 0,0.209192 0,0.209192 l -0.071,0.28727 -0.0743,0.205951 c -0.20978,0.212727 -0.35121,-0.06718 -0.35121,0.28727 0,0.351207 -0.0675,0.915435 -0.35504,1.060691 -0.13847,0.04803 -0.2413,-0.02298 -0.2799,0 l 0.56747,-1.202411 -0.63848,1.202411 0.0566,0.02652 c -0.004,0.02328 -0.002,0.05186 0.0144,0.111962 0,0.355036 0.071,0.284029 -0.14201,0.493221 -0.0781,0.11697 -0.19535,0.149086 -0.31232,0.177371 -0.096,0.02475 -0.19181,0.04596 -0.25545,0.109899 -0.0707,0.138479 -0.20948,0.280199 -0.3515,0.492926 -0.14201,0.213022 -0.28344,0 -0.49293,0.280494 -0.1423,0.213022 -0.1423,0.213022 -0.21331,0.358572 0,0.06718 -0.0701,0.138185 -0.14113,0.209192 -0.28433,0.14172 -0.63877,0.354742 -0.78079,0.421919 -0.20949,0.07101 -0.28049,0.142309 -0.42192,0.216558 -0.14201,0 -0.20978,0.209191 -0.28403,0.351501 -0.071,0.14172 -0.21302,0.14172 -0.42221,0.14172 -0.1317,0 -0.30524,-0.179434 -0.42604,-0.322922 v 0.674128 c -0.071,0.07101 -0.071,0.14172 -0.071,0.28727 0.071,0.138479 -0.0669,0.06747 0.071,0.280199 0.23983,0.36034 0.0519,0.388625 0.28049,0.766644 0.11314,-0.01591 0.21685,-0.05716 0.21685,-0.05716 0,0 0.0259,-0.07425 0.0474,-0.161166 -0.0905,-0.09222 -0.11874,-0.122568 -0.11874,-0.122568 0,0 -0.0675,-0.07101 -0.0675,-0.142015 0.13877,0.07101 0.35091,-0.283735 0.35091,-0.283735 h 0.0678 c 0,0 0.14525,-0.07101 0.35503,0 0.0704,0 0.14143,0 0.21243,0.142015 0.071,0.14172 0.071,0.14172 0.14202,0.212727 0.0675,0.138774 0.13848,0.209487 0.20949,0.209487 0.0601,0 0.16647,-0.03565 0.24071,-0.0071 0.0144,0.0035 0.0324,-0.0038 0.0427,0.0071 l 0.071,0.145255 c -0.071,0.06777 -0.14201,0 -0.14201,0.209487 0,0.142014 0,0.07101 0.071,0.213022 0.071,0.138184 0.071,0.425454 0.21302,0.492926 0.0678,0.07454 0.14231,0.07454 0.0678,0.07454 -0.0678,0 -0.35179,-0.142015 -0.35179,-0.142015 h -0.071 c -0.071,0.06747 0,0.06747 -0.071,0.06747 -0.0704,0 -0.14142,-0.06747 -0.21243,-0.06747 -0.0463,-0.05127 -0.0958,-0.09929 -0.14555,-0.148791 -0.0212,-0.02151 -0.0427,-0.0442 -0.0639,-0.06747 -0.071,-0.07101 -0.071,-0.134648 -0.14201,-0.07101 0,0 0,0.14555 -0.0704,0 -0.14201,-0.06364 -0.20978,-0.138184 -0.28403,-0.280199 -0.071,-0.07101 -0.071,-0.07101 -0.13877,-0.142015 -0.0743,-0.134648 0.0574,-0.07808 -0.0669,-0.20212 -0.0922,0.08515 -0.1812,0.168532 -0.27166,0.260753 0.0227,0.03182 0.0268,0.04626 0.0551,0.08338 0,0 -0.35504,-0.212727 -0.42604,-0.425749 -0.071,-0.280494 -0.13789,-0.280494 -0.13789,-0.280494 -0.071,0.07101 -0.14202,0 -0.14202,0.07101 0,0.138774 -0.071,0.07101 0,0.209487 0.071,0.07425 0.071,0.07425 0.14202,0.145255 0.0669,0 0.13789,0 0.0669,0.06777 -0.0669,0 -0.2089,0 -0.27991,-0.06777 -0.0745,0 -0.14201,-0.07101 -0.21331,-0.07101 -0.0686,0.06953 -0.071,0.0038 -0.2089,0.06953 -0.54243,0.673833 -1.02533,1.286087 -1.75279,1.853556 -0.11314,-0.02121 -0.22687,-0.04243 -0.34767,-0.06924 -0.33707,-0.07248 -0.70595,-0.175603 -1.1099,-0.313788 -0.0678,-0.02328 -0.1208,-0.03211 -0.18827,-0.05716 0,0 0.071,-0.07071 -0.20978,-0.212727 -0.28344,-0.07101 0,0.283734 -0.21243,0.564228 -0.1317,0.219799 -0.0248,0.35651 0.0463,0.496757 0.0171,0.03388 0.033,0.06718 0.0421,0.10106 0.0144,0.05687 0.0144,0.115203 -0.0174,0.182674 -0.0357,0.139952 0,0.177371 0.0781,0.220093 -0.18827,0.07101 -0.37094,0.139953 -0.55715,0.209192 l -1.71007,-10.753043 -4.95254,13.573301 -4.80346,-13.218559 -2.33499,13.573595 h -2.40511 l 3.95932,-21.634252 5.58424,13.506418 5.58748,-13.506418 2.92721,15.78042 11.91627,-16.770103 11.37119,16.263035 2.76722,-15.127801 5.65495,13.499346 5.51648,-13.499346 z m -29.83604,-17.742402 c 0.14172,0 0.78049,0.6317 1.06039,0.91897 v 0.06747 c 0.071,0.07101 0.14202,0.14172 0.21656,0.212727 0.0675,0 0.0675,0.07101 0.0675,0.07101 v 0.283735 h -0.0675 v 0.142015 c 0,0 0.0675,0.06747 0.13848,0.138184 0,0 0.071,0 0.14201,0.142309 0.0704,0.07425 0,0 0,0.07425 0.21244,0.280493 0.49322,0.560692 0.56423,0.705948 h 0.0704 l 0.0743,0.06747 c 0.0678,0.07101 0.0678,0.07101 0.0678,0.14172 v 0.07101 l 0.14202,0.07101 h 0.14201 l 0.071,0.07101 c 0,0 0.071,0 0.071,0.07101 0.071,0 0.14142,-0.07101 0.14142,-0.07101 l -0.35798,-1.060691 -0.0212,-0.06394 c -0.26282,-0.342367 -0.5607,-0.801999 -0.61373,-0.855034 0,-0.07101 -0.20978,-0.280199 -0.28079,-0.354742 -0.0704,-0.07101 -0.28344,-0.280199 -0.35091,-0.351501 -0.14555,-0.07042 -0.14555,-0.212433 -0.35857,-0.354153 -0.13789,-0.138773 -0.0704,0 -0.27991,-0.0713 -0.21331,-0.06747 -0.14201,-0.06747 -0.35533,-0.209191 -0.28314,-0.142015 -0.28314,-0.07101 -0.42545,-0.07101 0,0 -0.0495,0.03565 -0.10961,0.07955 0.10283,0.04125 0.12404,0.0056 0.25192,0.133176 z m 2.76015,5.651711 -0.071,-0.06747 v -0.145551 c -0.071,0.07454 -0.071,0.07454 -0.14555,0.145551 v 0.142014 l 0.14555,0.06718 c 0.071,0 0.071,-0.06718 0.071,-0.14172 z m -0.99027,5.796968 c 0.0678,0.07425 0.13877,0.07425 0.13877,0.07425 h 0.14201 l -0.14201,-0.144961 -0.56423,-0.919265 v 0.14555 c 0,0 0,0.06747 0.14202,0.209192 0.071,0.213022 0.071,0.142015 0.071,0.284029 0,0.07071 0.0704,0.07071 0.14143,0.212728 0,0.06777 0.071,0.06777 0.071,0.138479 z m 0.81231,-9.325236 0.0359,0.0657 0.21303,0.283734 c 0.20889,0.283735 0.42191,0.634941 0.35091,0.634941 v 0.07101 c 0,0 -0.071,0 -0.071,0.07101 l -0.071,0.07101 v 0.07071 c 0.14202,0.07101 0.49646,0.209486 0.56747,0.280494 v -0.07101 c 0,-0.04419 -0.0881,-0.207718 -0.15233,-0.356509 -0.053,-0.09929 -0.0993,-0.182969 -0.13081,-0.278726 -0.14231,-0.209192 -0.35533,-0.421919 -0.56423,-0.634647 -0.0536,-0.05186 -0.11579,-0.131407 -0.17796,-0.207718 z m 1.73157,4.801981 c 0,-0.142015 0.071,-0.142015 0.071,-0.142015 l -0.071,-0.209486 v -0.07425 l 0.004,-0.0035 c 0.003,-0.0091 0.071,-0.138185 0.13494,-0.138185 v 0.14172 c 0,0 0.0339,0.03359 0.0746,0.07425 0,-0.145256 0,-0.283735 -0.0746,-0.42575 0,-0.212727 -0.13848,-0.563933 -0.20948,-0.776661 -0.14202,-0.14555 -0.28344,-0.567469 -0.28344,-0.567469 0,0 -0.0787,-0.402768 -0.1815,-0.750733 -0.0212,0.01974 -0.028,0.04449 -0.028,0.04449 h -0.49676 v 0.07101 l -0.071,0.06718 -0.071,0.216558 v -0.07101 c -0.0315,0.06394 -0.046,0.108426 -0.0566,0.142014 -0.0109,0.04243 -0.0144,0.06718 -0.0144,0.06718 0,0.07101 0,0.07101 -0.071,0.142015 l 0.071,0.0713 c 0,0 -0.071,0 -0.071,0.07042 -0.0675,0.07101 0,0 -0.0675,0.14555 h -0.0704 c 0,0.06777 -0.071,0.138774 -0.071,0.205951 l 0.071,0.14555 -0.071,0.06718 v 0.145551 c 0,0.209191 0.2089,0.422213 0.2799,0.563933 v 0.142015 c 0,0.06777 0.071,0.06777 0.071,0.138479 l 0.071,0.07101 c 0.071,0.07425 0.14231,0.07425 0.14231,0.07425 h 0.071 c 0,0 -0.071,0 -0.071,-0.07425 v -0.07101 c -0.21332,-0.07071 0.21213,-0.422214 -0.14231,-0.776956 l -0.071,-0.138479 0.14201,0.07101 h 0.0713 l -0.0713,-0.07101 c 0,0 0,-0.07454 -0.071,-0.14172 l -0.071,-0.07454 c 0,0 0,-0.07101 -0.071,-0.138184 0,-0.138774 0.071,0 0.071,0 l 0.071,0.06718 c 0,0 0.071,0 0.071,0.07101 0.0713,0.07454 0.0713,0.07454 0.14231,0.14172 0.0701,0.145551 0.42546,0.638772 0.42546,0.780492 0.0675,0.07101 0.0675,0.138773 0.0675,0.209486 0,0.07101 0,0.07101 0.071,0.145256 0.071,0.138479 0.14142,0.6317 0.14142,0.702412 0,0.07484 0.071,0.142015 0.071,0.07484 h 0.14201 c 0,0 0.071,-0.07484 0.071,-0.14555 v -0.06364 c 0,0 -0.071,-0.14555 -0.071,-0.216557 z m 8.26985,5.585713 1.19593,1.052146 -0.0678,0.381259 c -0.018,-0.08515 -0.053,-0.184442 -0.48969,-0.58721 -0.0586,-0.05686 -0.1046,-0.09045 -0.15763,-0.138184 -0.10489,-0.09428 -0.20418,-0.181202 -0.29316,-0.244843 -0.0174,-0.01797 -0.0247,-0.02151 -0.0421,-0.03889 -0.28756,-0.213317 -0.14555,-0.142015 -0.14555,-0.351501 0,-0.03212 -0.007,-0.04449 -0.009,-0.06747 l 0.009,-0.0071 z"
       style="stroke-width:0.0294636;filter:url(#filter4)"
       transform="matrix(0.5,0,0,0.5,-160.10371,-12.000996)" /></g><style
     id="style1">&#10;		tspan { white-space:pre }&#10;		.shp0 { fill: #d3a964 } &#10;		.shp1 { fill: #d2a663 } &#10;	</style></svg>
